<svg width="40" height="40" viewBox="0 0 40 40" fill="none" xmlns="http://www.w3.org/2000/svg">
<circle cx="20" cy="20" r="20" fill="#EAE2FF"/>
<path d="M28.4521 27.9758C28.4521 28.1042 28.4012 28.2274 28.3104 28.3182C28.2197 28.409 28.0966 28.46 27.9682 28.46H14.269C13.939 28.4596 13.6131 28.3874 13.3139 28.2482C13.0147 28.109 12.7494 27.9063 12.5365 27.6542C12.3235 27.402 12.168 27.1065 12.0808 26.7881C11.9936 26.4697 11.9767 26.1361 12.0314 25.8105L13.7977 15.3425C13.8547 14.9573 14.0038 14.5916 14.2323 14.2763C14.4607 13.9611 14.7618 13.7056 15.11 13.5316L17.7434 12.2146C18.056 12.0592 18.403 11.9861 18.7517 12.0022C19.1003 12.0183 19.4391 12.1231 19.7361 12.3067C20.033 12.4903 20.2782 12.7466 20.4486 13.0514C20.619 13.3562 20.7088 13.6995 20.7097 14.0487C20.7089 14.7887 20.4148 15.4981 19.8919 16.0213C19.369 16.5445 18.66 16.8388 17.9205 16.8396H16.9024L17.6544 22.8531L18.1557 22.184C18.7409 21.4046 19.5042 20.7768 20.3818 20.3533C21.2594 19.9298 22.2256 19.7229 23.1995 19.7499C24.1735 19.777 25.1268 20.0371 25.9795 20.5086C26.8323 20.9802 27.5597 21.6493 28.1008 22.46L28.3708 22.8657C28.4083 22.9186 28.4348 22.9784 28.4487 23.0417C28.4626 23.1049 28.4637 23.1703 28.4519 23.234C28.4401 23.2977 28.4156 23.3584 28.38 23.4125C28.3443 23.4665 28.2982 23.5129 28.2443 23.5488C28.1904 23.5847 28.1299 23.6094 28.0663 23.6215C28.0027 23.6336 27.9373 23.6327 27.874 23.6191C27.8107 23.6054 27.7508 23.5792 27.6978 23.5419C27.6449 23.5047 27.5999 23.4572 27.5656 23.4022L27.2956 22.9965C26.8404 22.3146 26.2285 21.7518 25.5112 21.3552C24.7938 20.9587 23.992 20.7398 23.1728 20.7171C22.3536 20.6943 21.5408 20.8683 20.8026 21.2244C20.0644 21.5806 19.4223 22.1085 18.9299 22.7641L17.7095 24.3929C17.652 24.4714 17.5722 24.5307 17.4805 24.5632C17.3888 24.5956 17.2895 24.5997 17.1955 24.5748C17.1014 24.5499 17.0171 24.4972 16.9534 24.4237C16.8897 24.3501 16.8497 24.2591 16.8385 24.1624L15.8707 16.4154C15.8621 16.347 15.8683 16.2775 15.8888 16.2117C15.9092 16.1458 15.9435 16.0851 15.9893 16.0335C16.0351 15.982 16.0914 15.9409 16.1544 15.9129C16.2174 15.8849 16.2857 15.8707 16.3546 15.8712H17.9205C18.4034 15.8707 18.8664 15.6785 19.2079 15.3369C19.5493 14.9952 19.7414 14.5319 19.7419 14.0487C19.7416 13.8643 19.6943 13.683 19.6045 13.5219C19.5146 13.3609 19.3851 13.2255 19.2283 13.1285C19.0715 13.0315 18.8925 12.9762 18.7084 12.9678C18.5242 12.9594 18.341 12.9981 18.176 13.0804L15.5426 14.3983C15.3328 14.5033 15.1515 14.6576 15.0143 14.848C14.8771 15.0384 14.7881 15.2592 14.7548 15.4916L12.9857 25.9723C12.9543 26.159 12.964 26.3503 13.014 26.5329C13.0641 26.7155 13.1533 26.8849 13.2754 27.0295C13.3975 27.1741 13.5497 27.2904 13.7213 27.3702C13.8929 27.45 14.0798 27.4914 14.269 27.4916H27.9682C28.0966 27.4916 28.2197 27.5426 28.3104 27.6334C28.4012 27.7242 28.4521 27.8474 28.4521 27.9758Z" fill="#5630B0"/>
</svg>
