<svg width="20" height="20" viewBox="0 0 20 20" fill="none" xmlns="http://www.w3.org/2000/svg">
<g clip-path="url(#clip0_5911_7450)">
<path d="M9.11725 1.6585C9.49349 0.951632 10.5065 0.951632 10.8827 1.6585L11.7389 3.26699C11.9792 3.71851 12.5215 3.9159 12.9958 3.72449L14.6856 3.04262C15.4282 2.74297 16.2042 3.39413 16.038 4.17746L15.66 5.95995C15.5538 6.46031 15.8424 6.9601 16.3288 7.11837L18.0615 7.68218C18.8229 7.92995 18.9989 8.92758 18.3681 9.42085L16.9327 10.5433C16.5297 10.8584 16.4295 11.4267 16.7004 11.8606L17.6653 13.4063C18.0894 14.0855 17.5829 14.9628 16.7826 14.9352L14.9615 14.8724C14.4503 14.8548 14.0082 15.2257 13.9368 15.7322L13.6825 17.5365C13.5707 18.3294 12.6188 18.6759 12.0234 18.1404L10.6688 16.9217C10.2886 16.5796 9.71144 16.5796 9.33119 16.9217L7.97655 18.1404C7.38124 18.6759 6.42931 18.3294 6.31753 17.5365L6.06317 15.7322C5.99176 15.2257 5.54967 14.8548 5.03848 14.8724L3.21742 14.9352C2.41714 14.9628 1.91063 14.0855 2.33468 13.4063L3.29961 11.8606C3.57047 11.4267 3.47026 10.8584 3.06733 10.5433L1.63194 9.42085C1.00114 8.92758 1.17705 7.92995 1.93852 7.68218L3.67124 7.11837C4.15763 6.9601 4.44618 6.46031 4.34005 5.95995L3.96196 4.17746C3.79581 3.39413 4.57183 2.74297 5.31441 3.04262L7.00416 3.72449C7.47849 3.9159 8.0208 3.71851 8.26112 3.26699L9.11725 1.6585Z" fill="#F6F2FF" stroke="#5630B0" stroke-width="1.2"/>
<path d="M7 10.4L8.71429 12L13 8" stroke="#5630B0" stroke-width="1.2" stroke-linecap="round" stroke-linejoin="round"/>
</g>
<defs>
<clipPath id="clip0_5911_7450">
<rect width="20" height="20" fill="white"/>
</clipPath>
</defs>
</svg>
