<svg width="40" height="40" viewBox="0 0 40 40" fill="none" xmlns="http://www.w3.org/2000/svg">
<circle cx="20" cy="20" r="20" fill="#FFB9CB"/>
<path d="M24.4701 21.0396C26.9401 18.5696 26.9401 14.5596 24.4701 12.0996C22.0101 9.62957 18.0001 9.62957 15.5301 12.0996C14.3401 13.2996 13.6801 14.8796 13.6801 16.5696C13.6801 18.2596 14.3401 19.8496 15.5301 21.0396C16.5501 22.0596 17.8501 22.6796 19.2501 22.8396V25.6996H16.9201C16.5101 25.6996 16.1701 26.0396 16.1701 26.4496C16.1701 26.8596 16.5101 27.1996 16.9201 27.1996H19.2501V28.9996C19.2501 29.4096 19.5901 29.7496 20.0001 29.7496C20.4101 29.7496 20.7501 29.4096 20.7501 28.9996V27.1996H23.0801C23.4901 27.1996 23.8301 26.8596 23.8301 26.4496C23.8301 26.0396 23.4901 25.6996 23.0801 25.6996H20.7501V22.8396C22.1601 22.6796 23.4601 22.0596 24.4701 21.0396ZM15.1801 16.5696C15.1801 15.2796 15.6801 14.0696 16.5901 13.1596C17.5301 12.2196 18.7701 11.7496 20.0001 11.7496C21.2301 11.7496 22.4701 12.2196 23.4101 13.1596C25.2901 15.0396 25.2901 18.0996 23.4101 19.9796C22.5001 20.8896 21.2901 21.3996 20.0001 21.3996C18.7101 21.3996 17.5001 20.8996 16.5901 19.9896C15.6801 19.0696 15.1801 17.8596 15.1801 16.5696Z" fill="#B8285F"/>
</svg>
