<svg width="40" height="40" viewBox="0 0 40 40" fill="none" xmlns="http://www.w3.org/2000/svg">
<circle cx="20" cy="20" r="20" fill="#EAE2FF"/>
<path d="M13.073 23.9993C15.2817 27.825 20.1736 29.1358 23.9993 26.927C25.5588 26.0267 26.7003 24.6806 27.356 23.1425C28.3088 20.9074 28.2355 18.2669 26.927 16.0007C25.6186 13.7344 23.3686 12.3506 20.9565 12.0583C19.2967 11.8571 17.5601 12.1726 16.0007 13.073C12.175 15.2817 10.8642 20.1736 13.073 23.9993Z" stroke="#5630B0" stroke-width="0.8"/>
<path d="M20.4755 12C20.4755 12 20.2866 14.8996 22.3254 18.3885C24.3642 21.8775 27.0003 23.1656 27.0003 23.1656M12.4754 16.8344C12.4754 16.8344 15.1116 18.1225 17.1504 21.6115C19.1892 25.1004 19.0002 28 19.0002 28" stroke="#5630B0" stroke-width="0.8"/>
</svg>
