<svg width="36" height="36" viewBox="0 0 36 36" fill="none" xmlns="http://www.w3.org/2000/svg">
<path d="M15.4971 9.25638C14.8638 8.64014 13.3269 7.25529 11.1047 6.46319C10.937 6.40341 10.7497 6.46506 10.6749 6.62287C10.0788 7.88026 9.62904 11.2542 10.5464 12.1469M22.4281 9.25638C23.0575 8.64396 24.1746 7.27243 26.3369 6.47798C26.5213 6.41024 26.7268 6.4931 26.8018 6.67047C27.1492 7.49184 27.6513 9.1666 27.6513 11.1834M18.4676 24.6723C18.7919 20.5698 22.1116 11.878 32.7478 9.38304C33.0195 9.31931 33.2695 9.54359 33.2095 9.80921C32.2926 13.8694 28.2974 21.7291 18.4676 24.6723ZM18.4676 24.6723C13.9388 23.4132 4.78115 18.6987 3.67283 9.80318C3.63986 9.53848 3.89244 9.32867 4.15493 9.40515C9.24969 10.8895 18.4676 15.7477 18.4676 24.6723ZM18.4676 24.6723V31.5M14.7794 15.0373C14.7794 12.23 15.5266 6.15076 18.4725 3.68483C18.6219 3.55975 18.8433 3.57467 18.974 3.71824C20.3482 5.2279 22.7006 9.217 22.7006 15.0373" stroke="#5630B0" stroke-width="1.4" stroke-linecap="round" stroke-linejoin="round"/>
</svg>
