<svg width="36" height="36" viewBox="0 0 36 36" fill="none" xmlns="http://www.w3.org/2000/svg">
<path d="M16.575 34.5797C25.5052 34.5797 32.775 27.3099 32.775 18.3797C32.775 15.9035 32.2119 13.5067 31.1074 11.2543C30.9341 10.9005 30.5009 10.7489 30.14 10.9222C30.0545 10.9638 29.9781 11.0218 29.9152 11.093C29.8522 11.1642 29.8039 11.2471 29.7731 11.3369C29.7422 11.4268 29.7294 11.5219 29.7354 11.6167C29.7414 11.7116 29.766 11.8043 29.8079 11.8896C30.8186 13.9398 31.3312 16.1273 31.3312 18.3797C31.3312 26.5158 24.7111 33.1358 16.575 33.1358C8.4389 33.1358 1.81885 26.5158 1.81885 18.3797C1.81885 10.2436 8.4389 3.62354 16.575 3.62354C18.8274 3.62354 21.0148 4.1361 23.0651 5.1468C23.4261 5.32006 23.8592 5.17568 24.0325 4.81471C24.2057 4.45375 24.0614 4.02782 23.7004 3.84733C21.448 2.74279 19.0512 2.17969 16.575 2.17969C7.64479 2.17969 0.375 9.44947 0.375 18.3797C0.375 27.3099 7.64479 34.5797 16.575 34.5797Z" fill="#5630B0"/>
<path d="M29.6973 9.8354C29.8804 9.8354 30.0635 9.75792 30.1973 9.63113L34.3671 5.46115C34.5713 5.25688 34.6277 4.95399 34.522 4.69337C34.4683 4.5634 34.3775 4.45207 34.2611 4.37318C34.1447 4.2943 34.0076 4.25133 33.867 4.2496H30.6974V1.07986C30.6974 0.7981 30.5284 0.537477 30.2607 0.431818C30.0001 0.32616 29.6973 0.382511 29.493 0.586784L25.3233 4.75676C25.1894 4.8906 25.1119 5.07374 25.119 5.26392L25.1613 8.79995L16.7795 17.1822C16.6812 17.2805 16.6144 17.4059 16.5875 17.5423C16.5606 17.6788 16.5748 17.8201 16.6284 17.9484C16.682 18.0768 16.7725 18.1863 16.8885 18.263C17.0044 18.3398 17.1405 18.3804 17.2796 18.3796C17.4627 18.3796 17.6388 18.3092 17.7797 18.1754L26.1614 9.79314L29.6973 9.8354C29.6902 9.8354 29.6902 9.8354 29.6973 9.8354ZM26.5559 8.3914L26.5277 5.54568L29.2887 2.77743V4.95399C29.2887 5.3414 29.6057 5.65838 29.9931 5.65838H32.1695L29.4085 8.41958L26.5559 8.3914Z" fill="#5630B0"/>
<path d="M17.6178 14.6245C17.7125 14.6512 17.8115 14.6589 17.9091 14.6472C18.0068 14.6356 18.1012 14.6049 18.187 14.5567C18.2728 14.5086 18.3482 14.4441 18.4091 14.3668C18.4699 14.2895 18.5149 14.201 18.5416 14.1063C18.5682 14.0116 18.5759 13.9126 18.5643 13.815C18.5526 13.7173 18.5219 13.6229 18.4738 13.5371C18.4257 13.4513 18.3611 13.3758 18.2838 13.315C18.2065 13.2542 18.118 13.2091 18.0233 13.1825C17.5427 13.0473 17.0545 12.9797 16.5738 12.9797C13.5922 12.9797 11.1738 15.4056 11.1738 18.3797C11.1738 21.3539 13.5997 23.7797 16.5738 23.7797C19.5555 23.7797 21.9738 21.3539 21.9738 18.3797C21.9738 17.8991 21.9062 17.4109 21.771 16.9302C21.7444 16.8355 21.6994 16.747 21.6386 16.6697C21.5777 16.5925 21.5023 16.5279 21.4165 16.4798C21.3307 16.4317 21.2363 16.4009 21.1386 16.3893C21.0409 16.3777 20.9419 16.3854 20.8473 16.412C20.7526 16.4386 20.6641 16.4837 20.5868 16.5445C20.5095 16.6053 20.445 16.6808 20.3968 16.7666C20.3487 16.8524 20.318 16.9468 20.3063 17.0444C20.2947 17.1421 20.3024 17.2411 20.329 17.3358C20.4267 17.6888 20.4793 18.0418 20.4793 18.3872C20.4793 20.5352 18.7293 22.2852 16.5813 22.2852C14.4334 22.2852 12.6834 20.5352 12.6834 18.3872C12.6684 15.8788 15.0717 13.911 17.6178 14.6245Z" fill="#5630B0"/>
<path d="M22.5621 10.2696C22.7808 9.92694 22.6787 9.48226 22.3361 9.26356C20.6132 8.16534 18.6129 7.58117 16.5698 7.57959C10.6139 7.57959 5.77344 12.4274 5.77344 18.3759C5.77344 24.3318 10.6212 29.1796 16.5698 29.1796C22.5184 29.1796 27.3734 24.3318 27.3734 18.3759C27.3734 16.3421 26.7902 14.3446 25.6895 12.6096C25.4708 12.267 25.0188 12.1722 24.6835 12.3836C24.3408 12.6023 24.2388 13.047 24.4575 13.3896C25.4125 14.8914 25.9155 16.6118 25.9155 18.3687C25.9155 23.5226 21.7238 27.7143 16.5698 27.7143C11.4158 27.7143 7.23142 23.5226 7.23142 18.3687C7.23142 13.2147 11.4231 9.03028 16.5698 9.03028C18.3267 9.03028 20.0544 9.53329 21.5488 10.4883C21.6292 10.5419 21.7196 10.5789 21.8146 10.597C21.9096 10.6151 22.0072 10.6139 22.1018 10.5935C22.1963 10.5731 22.2857 10.5339 22.3648 10.4783C22.4439 10.4226 22.511 10.3516 22.5621 10.2696Z" fill="#5630B0"/>
</svg>
