<svg width="333" height="159" viewBox="0 0 333 159" fill="none" xmlns="http://www.w3.org/2000/svg">
<path d="M3.3043 143L0.308297 132.57H1.4423L4.0323 141.908H3.7943L6.4543 132.57H7.6443L10.2903 141.908H10.0383L12.6423 132.57H13.7763L10.7803 143H9.5903L6.9163 133.62H7.1683L4.4943 143H3.3043ZM17.869 143.168C17.169 143.168 16.5343 143 15.965 142.664C15.405 142.319 14.9617 141.847 14.635 141.25C14.3083 140.653 14.145 139.976 14.145 139.22C14.145 138.464 14.3037 137.797 14.621 137.218C14.9383 136.63 15.3677 136.168 15.909 135.832C16.4597 135.496 17.0757 135.328 17.757 135.328C18.2983 135.328 18.779 135.431 19.199 135.636C19.6283 135.832 19.9923 136.103 20.291 136.448C20.5897 136.784 20.8183 137.167 20.977 137.596C21.1357 138.016 21.215 138.45 21.215 138.898C21.215 138.991 21.2103 139.099 21.201 139.22C21.1917 139.332 21.1777 139.449 21.159 139.57H14.817V138.59H20.557L20.053 139.01C20.137 138.497 20.0763 138.039 19.871 137.638C19.675 137.227 19.3903 136.905 19.017 136.672C18.6437 136.429 18.2237 136.308 17.757 136.308C17.2903 136.308 16.8563 136.429 16.455 136.672C16.063 136.915 15.755 137.255 15.531 137.694C15.307 138.123 15.2183 138.637 15.265 139.234C15.2183 139.831 15.3117 140.354 15.545 140.802C15.7877 141.241 16.1143 141.581 16.525 141.824C16.945 142.067 17.393 142.188 17.869 142.188C18.4197 142.188 18.8817 142.057 19.255 141.796C19.6283 141.535 19.9317 141.208 20.165 140.816L21.061 141.292C20.9117 141.628 20.683 141.941 20.375 142.23C20.067 142.51 19.6983 142.739 19.269 142.916C18.849 143.084 18.3823 143.168 17.869 143.168ZM26.4823 143.168C25.7823 143.168 25.1476 143 24.5783 142.664C24.0183 142.319 23.5749 141.847 23.2483 141.25C22.9216 140.653 22.7583 139.976 22.7583 139.22C22.7583 138.464 22.9169 137.797 23.2343 137.218C23.5516 136.63 23.9809 136.168 24.5223 135.832C25.0729 135.496 25.6889 135.328 26.3703 135.328C26.9116 135.328 27.3923 135.431 27.8123 135.636C28.2416 135.832 28.6056 136.103 28.9043 136.448C29.2029 136.784 29.4316 137.167 29.5903 137.596C29.7489 138.016 29.8283 138.45 29.8283 138.898C29.8283 138.991 29.8236 139.099 29.8143 139.22C29.8049 139.332 29.7909 139.449 29.7723 139.57H23.4303V138.59H29.1703L28.6663 139.01C28.7503 138.497 28.6896 138.039 28.4843 137.638C28.2883 137.227 28.0036 136.905 27.6303 136.672C27.2569 136.429 26.8369 136.308 26.3703 136.308C25.9036 136.308 25.4696 136.429 25.0683 136.672C24.6763 136.915 24.3683 137.255 24.1443 137.694C23.9203 138.123 23.8316 138.637 23.8783 139.234C23.8316 139.831 23.9249 140.354 24.1583 140.802C24.4009 141.241 24.7276 141.581 25.1383 141.824C25.5583 142.067 26.0063 142.188 26.4823 142.188C27.0329 142.188 27.4949 142.057 27.8683 141.796C28.2416 141.535 28.5449 141.208 28.7783 140.816L29.6743 141.292C29.5249 141.628 29.2963 141.941 28.9883 142.23C28.6803 142.51 28.3116 142.739 27.8823 142.916C27.4623 143.084 26.9956 143.168 26.4823 143.168ZM31.6796 143V132.402H32.7296V139.822L32.2816 139.752L36.4956 135.496H37.8536L34.9136 138.506L38.1196 143H36.8596L33.8496 138.842L34.5216 138.898L32.3796 141.11L32.7296 140.242V143H31.6796ZM43.1844 143V133.55H41.2244V132.57H44.3044V143H43.1844Z" fill="#9195A3"/>
<path d="M93.4928 143L90.4968 132.57H91.6308L94.2208 141.908H93.9828L96.6428 132.57H97.8328L100.479 141.908H100.227L102.831 132.57H103.965L100.969 143H99.7788L97.1048 133.62H97.3568L94.6828 143H93.4928ZM108.057 143.168C107.357 143.168 106.723 143 106.153 142.664C105.593 142.319 105.15 141.847 104.823 141.25C104.497 140.653 104.333 139.976 104.333 139.22C104.333 138.464 104.492 137.797 104.809 137.218C105.127 136.63 105.556 136.168 106.097 135.832C106.648 135.496 107.264 135.328 107.945 135.328C108.487 135.328 108.967 135.431 109.387 135.636C109.817 135.832 110.181 136.103 110.479 136.448C110.778 136.784 111.007 137.167 111.165 137.596C111.324 138.016 111.403 138.45 111.403 138.898C111.403 138.991 111.399 139.099 111.389 139.22C111.38 139.332 111.366 139.449 111.347 139.57H105.005V138.59H110.745L110.241 139.01C110.325 138.497 110.265 138.039 110.059 137.638C109.863 137.227 109.579 136.905 109.205 136.672C108.832 136.429 108.412 136.308 107.945 136.308C107.479 136.308 107.045 136.429 106.643 136.672C106.251 136.915 105.943 137.255 105.719 137.694C105.495 138.123 105.407 138.637 105.453 139.234C105.407 139.831 105.5 140.354 105.733 140.802C105.976 141.241 106.303 141.581 106.713 141.824C107.133 142.067 107.581 142.188 108.057 142.188C108.608 142.188 109.07 142.057 109.443 141.796C109.817 141.535 110.12 141.208 110.353 140.816L111.249 141.292C111.1 141.628 110.871 141.941 110.563 142.23C110.255 142.51 109.887 142.739 109.457 142.916C109.037 143.084 108.571 143.168 108.057 143.168ZM116.671 143.168C115.971 143.168 115.336 143 114.767 142.664C114.207 142.319 113.763 141.847 113.437 141.25C113.11 140.653 112.947 139.976 112.947 139.22C112.947 138.464 113.105 137.797 113.423 137.218C113.74 136.63 114.169 136.168 114.711 135.832C115.261 135.496 115.877 135.328 116.559 135.328C117.1 135.328 117.581 135.431 118.001 135.636C118.43 135.832 118.794 136.103 119.093 136.448C119.391 136.784 119.62 137.167 119.779 137.596C119.937 138.016 120.017 138.45 120.017 138.898C120.017 138.991 120.012 139.099 120.003 139.22C119.993 139.332 119.979 139.449 119.961 139.57H113.619V138.59H119.359L118.855 139.01C118.939 138.497 118.878 138.039 118.673 137.638C118.477 137.227 118.192 136.905 117.819 136.672C117.445 136.429 117.025 136.308 116.559 136.308C116.092 136.308 115.658 136.429 115.257 136.672C114.865 136.915 114.557 137.255 114.333 137.694C114.109 138.123 114.02 138.637 114.067 139.234C114.02 139.831 114.113 140.354 114.347 140.802C114.589 141.241 114.916 141.581 115.327 141.824C115.747 142.067 116.195 142.188 116.671 142.188C117.221 142.188 117.683 142.057 118.057 141.796C118.43 141.535 118.733 141.208 118.967 140.816L119.863 141.292C119.713 141.628 119.485 141.941 119.177 142.23C118.869 142.51 118.5 142.739 118.071 142.916C117.651 143.084 117.184 143.168 116.671 143.168ZM121.868 143V132.402H122.918V139.822L122.47 139.752L126.684 135.496H128.042L125.102 138.506L128.308 143H127.048L124.038 138.842L124.71 138.898L122.568 141.11L122.918 140.242V143H121.868ZM136.789 143V140.536H131.483V139.626L136.789 132.57H137.769V139.626H139.043V140.536H137.769V143H136.789ZM132.337 140.032L132.211 139.626H136.789V133.536L137.139 133.634L132.337 140.032Z" fill="#9195A3"/>
<path d="M187.506 143L184.51 132.57H185.644L188.234 141.908H187.996L190.656 132.57H191.846L194.492 141.908H194.24L196.844 132.57H197.978L194.982 143H193.792L191.118 133.62H191.37L188.696 143H187.506ZM202.071 143.168C201.371 143.168 200.736 143 200.167 142.664C199.607 142.319 199.164 141.847 198.837 141.25C198.51 140.653 198.347 139.976 198.347 139.22C198.347 138.464 198.506 137.797 198.823 137.218C199.14 136.63 199.57 136.168 200.111 135.832C200.662 135.496 201.278 135.328 201.959 135.328C202.5 135.328 202.981 135.431 203.401 135.636C203.83 135.832 204.194 136.103 204.493 136.448C204.792 136.784 205.02 137.167 205.179 137.596C205.338 138.016 205.417 138.45 205.417 138.898C205.417 138.991 205.412 139.099 205.403 139.22C205.394 139.332 205.38 139.449 205.361 139.57H199.019V138.59H204.759L204.255 139.01C204.339 138.497 204.278 138.039 204.073 137.638C203.877 137.227 203.592 136.905 203.219 136.672C202.846 136.429 202.426 136.308 201.959 136.308C201.492 136.308 201.058 136.429 200.657 136.672C200.265 136.915 199.957 137.255 199.733 137.694C199.509 138.123 199.42 138.637 199.467 139.234C199.42 139.831 199.514 140.354 199.747 140.802C199.99 141.241 200.316 141.581 200.727 141.824C201.147 142.067 201.595 142.188 202.071 142.188C202.622 142.188 203.084 142.057 203.457 141.796C203.83 141.535 204.134 141.208 204.367 140.816L205.263 141.292C205.114 141.628 204.885 141.941 204.577 142.23C204.269 142.51 203.9 142.739 203.471 142.916C203.051 143.084 202.584 143.168 202.071 143.168ZM210.684 143.168C209.984 143.168 209.35 143 208.78 142.664C208.22 142.319 207.777 141.847 207.45 141.25C207.124 140.653 206.96 139.976 206.96 139.22C206.96 138.464 207.119 137.797 207.436 137.218C207.754 136.63 208.183 136.168 208.724 135.832C209.275 135.496 209.891 135.328 210.572 135.328C211.114 135.328 211.594 135.431 212.014 135.636C212.444 135.832 212.808 136.103 213.106 136.448C213.405 136.784 213.634 137.167 213.792 137.596C213.951 138.016 214.03 138.45 214.03 138.898C214.03 138.991 214.026 139.099 214.016 139.22C214.007 139.332 213.993 139.449 213.974 139.57H207.632V138.59H213.372L212.868 139.01C212.952 138.497 212.892 138.039 212.686 137.638C212.49 137.227 212.206 136.905 211.832 136.672C211.459 136.429 211.039 136.308 210.572 136.308C210.106 136.308 209.672 136.429 209.27 136.672C208.878 136.915 208.57 137.255 208.346 137.694C208.122 138.123 208.034 138.637 208.08 139.234C208.034 139.831 208.127 140.354 208.36 140.802C208.603 141.241 208.93 141.581 209.34 141.824C209.76 142.067 210.208 142.188 210.684 142.188C211.235 142.188 211.697 142.057 212.07 141.796C212.444 141.535 212.747 141.208 212.98 140.816L213.876 141.292C213.727 141.628 213.498 141.941 213.19 142.23C212.882 142.51 212.514 142.739 212.084 142.916C211.664 143.084 211.198 143.168 210.684 143.168ZM215.882 143V132.402H216.932V139.822L216.484 139.752L220.698 135.496H222.056L219.116 138.506L222.322 143H221.062L218.052 138.842L218.724 138.898L216.582 141.11L216.932 140.242V143H215.882ZM229.249 143.168C228.577 143.168 227.975 143.033 227.443 142.762C226.92 142.482 226.505 142.104 226.197 141.628C225.898 141.143 225.749 140.597 225.749 139.99C225.749 139.327 225.935 138.735 226.309 138.212C226.691 137.689 227.205 137.325 227.849 137.12V137.414C227.354 137.199 226.971 136.882 226.701 136.462C226.43 136.033 226.295 135.575 226.295 135.09C226.295 134.577 226.425 134.119 226.687 133.718C226.948 133.317 227.298 132.999 227.737 132.766C228.185 132.523 228.689 132.402 229.249 132.402C229.818 132.402 230.322 132.519 230.761 132.752C231.199 132.976 231.545 133.293 231.797 133.704C232.058 134.105 232.189 134.567 232.189 135.09C232.189 135.613 232.049 136.079 231.769 136.49C231.489 136.891 231.12 137.199 230.663 137.414L230.649 137.12C231.293 137.325 231.801 137.689 232.175 138.212C232.557 138.735 232.749 139.327 232.749 139.99C232.749 140.597 232.595 141.143 232.287 141.628C231.988 142.104 231.573 142.482 231.041 142.762C230.518 143.033 229.921 143.168 229.249 143.168ZM229.249 142.188C229.725 142.188 230.14 142.099 230.495 141.922C230.849 141.735 231.125 141.479 231.321 141.152C231.526 140.816 231.629 140.429 231.629 139.99C231.629 139.551 231.526 139.169 231.321 138.842C231.125 138.506 230.849 138.249 230.495 138.072C230.14 137.885 229.725 137.792 229.249 137.792C228.773 137.792 228.353 137.885 227.989 138.072C227.634 138.249 227.359 138.506 227.163 138.842C226.967 139.169 226.869 139.551 226.869 139.99C226.869 140.429 226.967 140.816 227.163 141.152C227.359 141.479 227.634 141.735 227.989 141.922C228.353 142.099 228.773 142.188 229.249 142.188ZM229.249 136.812C229.594 136.812 229.902 136.742 230.173 136.602C230.443 136.453 230.658 136.252 230.817 136C230.985 135.739 231.069 135.435 231.069 135.09C231.069 134.745 230.985 134.446 230.817 134.194C230.658 133.942 230.443 133.746 230.173 133.606C229.902 133.457 229.594 133.382 229.249 133.382C228.903 133.382 228.591 133.457 228.311 133.606C228.04 133.746 227.821 133.942 227.653 134.194C227.494 134.446 227.415 134.745 227.415 135.09C227.415 135.435 227.494 135.739 227.653 136C227.821 136.252 228.04 136.453 228.311 136.602C228.591 136.742 228.903 136.812 229.249 136.812Z" fill="#9195A3"/>
<path d="M281.607 143L278.611 132.57H279.745L282.335 141.908H282.097L284.757 132.57H285.947L288.593 141.908H288.341L290.945 132.57H292.079L289.083 143H287.893L285.219 133.62H285.471L282.797 143H281.607ZM296.172 143.168C295.472 143.168 294.837 143 294.268 142.664C293.708 142.319 293.264 141.847 292.938 141.25C292.611 140.653 292.448 139.976 292.448 139.22C292.448 138.464 292.606 137.797 292.924 137.218C293.241 136.63 293.67 136.168 294.212 135.832C294.762 135.496 295.378 135.328 296.06 135.328C296.601 135.328 297.082 135.431 297.502 135.636C297.931 135.832 298.295 136.103 298.594 136.448C298.892 136.784 299.121 137.167 299.28 137.596C299.438 138.016 299.518 138.45 299.518 138.898C299.518 138.991 299.513 139.099 299.504 139.22C299.494 139.332 299.48 139.449 299.462 139.57H293.12V138.59H298.86L298.356 139.01C298.44 138.497 298.379 138.039 298.174 137.638C297.978 137.227 297.693 136.905 297.32 136.672C296.946 136.429 296.526 136.308 296.06 136.308C295.593 136.308 295.159 136.429 294.758 136.672C294.366 136.915 294.058 137.255 293.834 137.694C293.61 138.123 293.521 138.637 293.568 139.234C293.521 139.831 293.614 140.354 293.848 140.802C294.09 141.241 294.417 141.581 294.828 141.824C295.248 142.067 295.696 142.188 296.172 142.188C296.722 142.188 297.184 142.057 297.558 141.796C297.931 141.535 298.234 141.208 298.468 140.816L299.364 141.292C299.214 141.628 298.986 141.941 298.678 142.23C298.37 142.51 298.001 142.739 297.572 142.916C297.152 143.084 296.685 143.168 296.172 143.168ZM304.785 143.168C304.085 143.168 303.45 143 302.881 142.664C302.321 142.319 301.878 141.847 301.551 141.25C301.224 140.653 301.061 139.976 301.061 139.22C301.061 138.464 301.22 137.797 301.537 137.218C301.854 136.63 302.284 136.168 302.825 135.832C303.376 135.496 303.992 135.328 304.673 135.328C305.214 135.328 305.695 135.431 306.115 135.636C306.544 135.832 306.908 136.103 307.207 136.448C307.506 136.784 307.734 137.167 307.893 137.596C308.052 138.016 308.131 138.45 308.131 138.898C308.131 138.991 308.126 139.099 308.117 139.22C308.108 139.332 308.094 139.449 308.075 139.57H301.733V138.59H307.473L306.969 139.01C307.053 138.497 306.992 138.039 306.787 137.638C306.591 137.227 306.306 136.905 305.933 136.672C305.56 136.429 305.14 136.308 304.673 136.308C304.206 136.308 303.772 136.429 303.371 136.672C302.979 136.915 302.671 137.255 302.447 137.694C302.223 138.123 302.134 138.637 302.181 139.234C302.134 139.831 302.228 140.354 302.461 140.802C302.704 141.241 303.03 141.581 303.441 141.824C303.861 142.067 304.309 142.188 304.785 142.188C305.336 142.188 305.798 142.057 306.171 141.796C306.544 141.535 306.848 141.208 307.081 140.816L307.977 141.292C307.828 141.628 307.599 141.941 307.291 142.23C306.983 142.51 306.614 142.739 306.185 142.916C305.765 143.084 305.298 143.168 304.785 143.168ZM309.982 143V132.402H311.032V139.822L310.584 139.752L314.798 135.496H316.156L313.216 138.506L316.422 143H315.162L312.152 138.842L312.824 138.898L310.682 141.11L311.032 140.242V143H309.982ZM321.487 143V133.55H319.527V132.57H322.607V143H321.487ZM324.96 143V142.3L327.872 139.094C328.442 138.469 328.904 137.951 329.258 137.54C329.622 137.129 329.893 136.756 330.07 136.42C330.248 136.084 330.336 135.72 330.336 135.328C330.336 134.703 330.154 134.222 329.79 133.886C329.426 133.55 328.941 133.382 328.334 133.382C327.709 133.382 327.182 133.559 326.752 133.914C326.332 134.269 326.048 134.763 325.898 135.398L324.876 135.174C324.998 134.605 325.217 134.115 325.534 133.704C325.852 133.293 326.248 132.976 326.724 132.752C327.2 132.519 327.732 132.402 328.32 132.402C328.946 132.402 329.492 132.528 329.958 132.78C330.425 133.032 330.789 133.377 331.05 133.816C331.321 134.255 331.456 134.759 331.456 135.328C331.456 135.72 331.372 136.098 331.204 136.462C331.046 136.826 330.803 137.218 330.476 137.638C330.15 138.058 329.73 138.548 329.216 139.108L326.57 142.02H331.736V143H324.96Z" fill="#9195A3"/>
<path d="M8.14179 101V90.57H9.62579L15.3658 98.298L14.5958 98.452V90.57H16.4998V101H15.0018L9.34579 93.216L10.0458 93.062V101H8.14179ZM22.0887 101.168C21.3421 101.168 20.6607 100.995 20.0447 100.65C19.4381 100.305 18.9527 99.8333 18.5887 99.236C18.2341 98.6387 18.0567 97.9573 18.0567 97.192C18.0567 96.4267 18.2341 95.7453 18.5887 95.148C18.9527 94.5507 19.4381 94.0793 20.0447 93.734C20.6514 93.3887 21.3327 93.216 22.0887 93.216C22.8354 93.216 23.5121 93.3887 24.1187 93.734C24.7254 94.0793 25.2061 94.5507 25.5607 95.148C25.9247 95.736 26.1067 96.4173 26.1067 97.192C26.1067 97.9573 25.9247 98.6387 25.5607 99.236C25.1967 99.8333 24.7114 100.305 24.1047 100.65C23.4981 100.995 22.8261 101.168 22.0887 101.168ZM22.0887 99.488C22.4994 99.488 22.8587 99.39 23.1667 99.194C23.4841 98.998 23.7314 98.7273 23.9087 98.382C24.0954 98.0273 24.1887 97.6307 24.1887 97.192C24.1887 96.744 24.0954 96.352 23.9087 96.016C23.7314 95.6707 23.4841 95.4 23.1667 95.204C22.8587 94.9987 22.4994 94.896 22.0887 94.896C21.6687 94.896 21.3001 94.9987 20.9827 95.204C20.6654 95.4 20.4134 95.6707 20.2267 96.016C20.0494 96.352 19.9607 96.744 19.9607 97.192C19.9607 97.6307 20.0494 98.0273 20.2267 98.382C20.4134 98.7273 20.6654 98.998 20.9827 99.194C21.3001 99.39 21.6687 99.488 22.0887 99.488ZM29.2788 101L26.6608 93.384H28.5928L30.5108 99.166L29.8388 99.152L31.8828 93.384H33.5068L35.5368 99.152L34.8648 99.166L36.7828 93.384H38.7148L36.0968 101H34.4588L32.3868 94.966H33.0028L30.9028 101H29.2788Z" fill="#18191A"/>
<path d="M299.5 8L299.5 127" stroke="#CAB7FA" stroke-linecap="round" stroke-dasharray="5 5"/>
<path d="M208 40L208 126.5" stroke="#DDB6E5" stroke-linecap="round" stroke-dasharray="5 5"/>
<path d="M117 76.5L117 126.5" stroke="white" stroke-linecap="round" stroke-dasharray="5 5"/>
<path d="M26.0012 114.5C26.0012 114.5 56.9919 115.918 86.8706 100.723C116.749 85.5272 111.552 63.1019 159.651 58.3634C207.75 53.6249 196.973 41.1557 231.552 25.074C266.131 8.99222 297.802 11.169 297.802 11.169" stroke="url(#paint0_linear_5653_14240)" stroke-width="3" stroke-linecap="round"/>
<circle cx="6.5" cy="6.5" r="6.5" transform="matrix(-1 0 0 1 306 5)" fill="#CAB7FA"/>
<circle cx="6.5" cy="6.5" r="6.5" transform="matrix(-1 0 0 1 32 108)" fill="#FBC7D4"/>
<defs>
<linearGradient id="paint0_linear_5653_14240" x1="308.501" y1="1.00012" x2="39.5012" y2="123" gradientUnits="userSpaceOnUse">
<stop stop-color="#B7A3E9"/>
<stop offset="0.465243" stop-color="#E4BAE4"/>
<stop offset="1" stop-color="#FBC7D4"/>
</linearGradient>
</defs>
</svg>
