<svg width="333" height="161" viewBox="0 0 333 161" fill="none" xmlns="http://www.w3.org/2000/svg">
<path d="M3.3043 157L0.308297 146.57H1.4423L4.0323 155.908H3.7943L6.4543 146.57H7.6443L10.2903 155.908H10.0383L12.6423 146.57H13.7763L10.7803 157H9.5903L6.9163 147.62H7.1683L4.4943 157H3.3043ZM17.869 157.168C17.169 157.168 16.5343 157 15.965 156.664C15.405 156.319 14.9617 155.847 14.635 155.25C14.3083 154.653 14.145 153.976 14.145 153.22C14.145 152.464 14.3037 151.797 14.621 151.218C14.9383 150.63 15.3677 150.168 15.909 149.832C16.4597 149.496 17.0757 149.328 17.757 149.328C18.2983 149.328 18.779 149.431 19.199 149.636C19.6283 149.832 19.9923 150.103 20.291 150.448C20.5897 150.784 20.8183 151.167 20.977 151.596C21.1357 152.016 21.215 152.45 21.215 152.898C21.215 152.991 21.2103 153.099 21.201 153.22C21.1917 153.332 21.1777 153.449 21.159 153.57H14.817V152.59H20.557L20.053 153.01C20.137 152.497 20.0763 152.039 19.871 151.638C19.675 151.227 19.3903 150.905 19.017 150.672C18.6437 150.429 18.2237 150.308 17.757 150.308C17.2903 150.308 16.8563 150.429 16.455 150.672C16.063 150.915 15.755 151.255 15.531 151.694C15.307 152.123 15.2183 152.637 15.265 153.234C15.2183 153.831 15.3117 154.354 15.545 154.802C15.7877 155.241 16.1143 155.581 16.525 155.824C16.945 156.067 17.393 156.188 17.869 156.188C18.4197 156.188 18.8817 156.057 19.255 155.796C19.6283 155.535 19.9317 155.208 20.165 154.816L21.061 155.292C20.9117 155.628 20.683 155.941 20.375 156.23C20.067 156.51 19.6983 156.739 19.269 156.916C18.849 157.084 18.3823 157.168 17.869 157.168ZM26.4823 157.168C25.7823 157.168 25.1476 157 24.5783 156.664C24.0183 156.319 23.5749 155.847 23.2483 155.25C22.9216 154.653 22.7583 153.976 22.7583 153.22C22.7583 152.464 22.9169 151.797 23.2343 151.218C23.5516 150.63 23.9809 150.168 24.5223 149.832C25.0729 149.496 25.6889 149.328 26.3703 149.328C26.9116 149.328 27.3923 149.431 27.8123 149.636C28.2416 149.832 28.6056 150.103 28.9043 150.448C29.2029 150.784 29.4316 151.167 29.5903 151.596C29.7489 152.016 29.8283 152.45 29.8283 152.898C29.8283 152.991 29.8236 153.099 29.8143 153.22C29.8049 153.332 29.7909 153.449 29.7723 153.57H23.4303V152.59H29.1703L28.6663 153.01C28.7503 152.497 28.6896 152.039 28.4843 151.638C28.2883 151.227 28.0036 150.905 27.6303 150.672C27.2569 150.429 26.8369 150.308 26.3703 150.308C25.9036 150.308 25.4696 150.429 25.0683 150.672C24.6763 150.915 24.3683 151.255 24.1443 151.694C23.9203 152.123 23.8316 152.637 23.8783 153.234C23.8316 153.831 23.9249 154.354 24.1583 154.802C24.4009 155.241 24.7276 155.581 25.1383 155.824C25.5583 156.067 26.0063 156.188 26.4823 156.188C27.0329 156.188 27.4949 156.057 27.8683 155.796C28.2416 155.535 28.5449 155.208 28.7783 154.816L29.6743 155.292C29.5249 155.628 29.2963 155.941 28.9883 156.23C28.6803 156.51 28.3116 156.739 27.8823 156.916C27.4623 157.084 26.9956 157.168 26.4823 157.168ZM31.6796 157V146.402H32.7296V153.822L32.2816 153.752L36.4956 149.496H37.8536L34.9136 152.506L38.1196 157H36.8596L33.8496 152.842L34.5216 152.898L32.3796 155.11L32.7296 154.242V157H31.6796ZM43.1844 157V147.55H41.2244V146.57H44.3044V157H43.1844Z" fill="#9195A3"/>
<path d="M93.4928 157L90.4968 146.57H91.6308L94.2208 155.908H93.9828L96.6428 146.57H97.8328L100.479 155.908H100.227L102.831 146.57H103.965L100.969 157H99.7788L97.1048 147.62H97.3568L94.6828 157H93.4928ZM108.057 157.168C107.357 157.168 106.723 157 106.153 156.664C105.593 156.319 105.15 155.847 104.823 155.25C104.497 154.653 104.333 153.976 104.333 153.22C104.333 152.464 104.492 151.797 104.809 151.218C105.127 150.63 105.556 150.168 106.097 149.832C106.648 149.496 107.264 149.328 107.945 149.328C108.487 149.328 108.967 149.431 109.387 149.636C109.817 149.832 110.181 150.103 110.479 150.448C110.778 150.784 111.007 151.167 111.165 151.596C111.324 152.016 111.403 152.45 111.403 152.898C111.403 152.991 111.399 153.099 111.389 153.22C111.38 153.332 111.366 153.449 111.347 153.57H105.005V152.59H110.745L110.241 153.01C110.325 152.497 110.265 152.039 110.059 151.638C109.863 151.227 109.579 150.905 109.205 150.672C108.832 150.429 108.412 150.308 107.945 150.308C107.479 150.308 107.045 150.429 106.643 150.672C106.251 150.915 105.943 151.255 105.719 151.694C105.495 152.123 105.407 152.637 105.453 153.234C105.407 153.831 105.5 154.354 105.733 154.802C105.976 155.241 106.303 155.581 106.713 155.824C107.133 156.067 107.581 156.188 108.057 156.188C108.608 156.188 109.07 156.057 109.443 155.796C109.817 155.535 110.12 155.208 110.353 154.816L111.249 155.292C111.1 155.628 110.871 155.941 110.563 156.23C110.255 156.51 109.887 156.739 109.457 156.916C109.037 157.084 108.571 157.168 108.057 157.168ZM116.671 157.168C115.971 157.168 115.336 157 114.767 156.664C114.207 156.319 113.763 155.847 113.437 155.25C113.11 154.653 112.947 153.976 112.947 153.22C112.947 152.464 113.105 151.797 113.423 151.218C113.74 150.63 114.169 150.168 114.711 149.832C115.261 149.496 115.877 149.328 116.559 149.328C117.1 149.328 117.581 149.431 118.001 149.636C118.43 149.832 118.794 150.103 119.093 150.448C119.391 150.784 119.62 151.167 119.779 151.596C119.937 152.016 120.017 152.45 120.017 152.898C120.017 152.991 120.012 153.099 120.003 153.22C119.993 153.332 119.979 153.449 119.961 153.57H113.619V152.59H119.359L118.855 153.01C118.939 152.497 118.878 152.039 118.673 151.638C118.477 151.227 118.192 150.905 117.819 150.672C117.445 150.429 117.025 150.308 116.559 150.308C116.092 150.308 115.658 150.429 115.257 150.672C114.865 150.915 114.557 151.255 114.333 151.694C114.109 152.123 114.02 152.637 114.067 153.234C114.02 153.831 114.113 154.354 114.347 154.802C114.589 155.241 114.916 155.581 115.327 155.824C115.747 156.067 116.195 156.188 116.671 156.188C117.221 156.188 117.683 156.057 118.057 155.796C118.43 155.535 118.733 155.208 118.967 154.816L119.863 155.292C119.713 155.628 119.485 155.941 119.177 156.23C118.869 156.51 118.5 156.739 118.071 156.916C117.651 157.084 117.184 157.168 116.671 157.168ZM121.868 157V146.402H122.918V153.822L122.47 153.752L126.684 149.496H128.042L125.102 152.506L128.308 157H127.048L124.038 152.842L124.71 152.898L122.568 155.11L122.918 154.242V157H121.868ZM136.789 157V154.536H131.483V153.626L136.789 146.57H137.769V153.626H139.043V154.536H137.769V157H136.789ZM132.337 154.032L132.211 153.626H136.789V147.536L137.139 147.634L132.337 154.032Z" fill="#9195A3"/>
<path d="M187.506 157L184.51 146.57H185.644L188.234 155.908H187.996L190.656 146.57H191.846L194.492 155.908H194.24L196.844 146.57H197.978L194.982 157H193.792L191.118 147.62H191.37L188.696 157H187.506ZM202.071 157.168C201.371 157.168 200.736 157 200.167 156.664C199.607 156.319 199.164 155.847 198.837 155.25C198.51 154.653 198.347 153.976 198.347 153.22C198.347 152.464 198.506 151.797 198.823 151.218C199.14 150.63 199.57 150.168 200.111 149.832C200.662 149.496 201.278 149.328 201.959 149.328C202.5 149.328 202.981 149.431 203.401 149.636C203.83 149.832 204.194 150.103 204.493 150.448C204.792 150.784 205.02 151.167 205.179 151.596C205.338 152.016 205.417 152.45 205.417 152.898C205.417 152.991 205.412 153.099 205.403 153.22C205.394 153.332 205.38 153.449 205.361 153.57H199.019V152.59H204.759L204.255 153.01C204.339 152.497 204.278 152.039 204.073 151.638C203.877 151.227 203.592 150.905 203.219 150.672C202.846 150.429 202.426 150.308 201.959 150.308C201.492 150.308 201.058 150.429 200.657 150.672C200.265 150.915 199.957 151.255 199.733 151.694C199.509 152.123 199.42 152.637 199.467 153.234C199.42 153.831 199.514 154.354 199.747 154.802C199.99 155.241 200.316 155.581 200.727 155.824C201.147 156.067 201.595 156.188 202.071 156.188C202.622 156.188 203.084 156.057 203.457 155.796C203.83 155.535 204.134 155.208 204.367 154.816L205.263 155.292C205.114 155.628 204.885 155.941 204.577 156.23C204.269 156.51 203.9 156.739 203.471 156.916C203.051 157.084 202.584 157.168 202.071 157.168ZM210.684 157.168C209.984 157.168 209.35 157 208.78 156.664C208.22 156.319 207.777 155.847 207.45 155.25C207.124 154.653 206.96 153.976 206.96 153.22C206.96 152.464 207.119 151.797 207.436 151.218C207.754 150.63 208.183 150.168 208.724 149.832C209.275 149.496 209.891 149.328 210.572 149.328C211.114 149.328 211.594 149.431 212.014 149.636C212.444 149.832 212.808 150.103 213.106 150.448C213.405 150.784 213.634 151.167 213.792 151.596C213.951 152.016 214.03 152.45 214.03 152.898C214.03 152.991 214.026 153.099 214.016 153.22C214.007 153.332 213.993 153.449 213.974 153.57H207.632V152.59H213.372L212.868 153.01C212.952 152.497 212.892 152.039 212.686 151.638C212.49 151.227 212.206 150.905 211.832 150.672C211.459 150.429 211.039 150.308 210.572 150.308C210.106 150.308 209.672 150.429 209.27 150.672C208.878 150.915 208.57 151.255 208.346 151.694C208.122 152.123 208.034 152.637 208.08 153.234C208.034 153.831 208.127 154.354 208.36 154.802C208.603 155.241 208.93 155.581 209.34 155.824C209.76 156.067 210.208 156.188 210.684 156.188C211.235 156.188 211.697 156.057 212.07 155.796C212.444 155.535 212.747 155.208 212.98 154.816L213.876 155.292C213.727 155.628 213.498 155.941 213.19 156.23C212.882 156.51 212.514 156.739 212.084 156.916C211.664 157.084 211.198 157.168 210.684 157.168ZM215.882 157V146.402H216.932V153.822L216.484 153.752L220.698 149.496H222.056L219.116 152.506L222.322 157H221.062L218.052 152.842L218.724 152.898L216.582 155.11L216.932 154.242V157H215.882ZM229.249 157.168C228.577 157.168 227.975 157.033 227.443 156.762C226.92 156.482 226.505 156.104 226.197 155.628C225.898 155.143 225.749 154.597 225.749 153.99C225.749 153.327 225.935 152.735 226.309 152.212C226.691 151.689 227.205 151.325 227.849 151.12V151.414C227.354 151.199 226.971 150.882 226.701 150.462C226.43 150.033 226.295 149.575 226.295 149.09C226.295 148.577 226.425 148.119 226.687 147.718C226.948 147.317 227.298 146.999 227.737 146.766C228.185 146.523 228.689 146.402 229.249 146.402C229.818 146.402 230.322 146.519 230.761 146.752C231.199 146.976 231.545 147.293 231.797 147.704C232.058 148.105 232.189 148.567 232.189 149.09C232.189 149.613 232.049 150.079 231.769 150.49C231.489 150.891 231.12 151.199 230.663 151.414L230.649 151.12C231.293 151.325 231.801 151.689 232.175 152.212C232.557 152.735 232.749 153.327 232.749 153.99C232.749 154.597 232.595 155.143 232.287 155.628C231.988 156.104 231.573 156.482 231.041 156.762C230.518 157.033 229.921 157.168 229.249 157.168ZM229.249 156.188C229.725 156.188 230.14 156.099 230.495 155.922C230.849 155.735 231.125 155.479 231.321 155.152C231.526 154.816 231.629 154.429 231.629 153.99C231.629 153.551 231.526 153.169 231.321 152.842C231.125 152.506 230.849 152.249 230.495 152.072C230.14 151.885 229.725 151.792 229.249 151.792C228.773 151.792 228.353 151.885 227.989 152.072C227.634 152.249 227.359 152.506 227.163 152.842C226.967 153.169 226.869 153.551 226.869 153.99C226.869 154.429 226.967 154.816 227.163 155.152C227.359 155.479 227.634 155.735 227.989 155.922C228.353 156.099 228.773 156.188 229.249 156.188ZM229.249 150.812C229.594 150.812 229.902 150.742 230.173 150.602C230.443 150.453 230.658 150.252 230.817 150C230.985 149.739 231.069 149.435 231.069 149.09C231.069 148.745 230.985 148.446 230.817 148.194C230.658 147.942 230.443 147.746 230.173 147.606C229.902 147.457 229.594 147.382 229.249 147.382C228.903 147.382 228.591 147.457 228.311 147.606C228.04 147.746 227.821 147.942 227.653 148.194C227.494 148.446 227.415 148.745 227.415 149.09C227.415 149.435 227.494 149.739 227.653 150C227.821 150.252 228.04 150.453 228.311 150.602C228.591 150.742 228.903 150.812 229.249 150.812Z" fill="#9195A3"/>
<path d="M281.607 157L278.611 146.57H279.745L282.335 155.908H282.097L284.757 146.57H285.947L288.593 155.908H288.341L290.945 146.57H292.079L289.083 157H287.893L285.219 147.62H285.471L282.797 157H281.607ZM296.172 157.168C295.472 157.168 294.837 157 294.268 156.664C293.708 156.319 293.264 155.847 292.938 155.25C292.611 154.653 292.448 153.976 292.448 153.22C292.448 152.464 292.606 151.797 292.924 151.218C293.241 150.63 293.67 150.168 294.212 149.832C294.762 149.496 295.378 149.328 296.06 149.328C296.601 149.328 297.082 149.431 297.502 149.636C297.931 149.832 298.295 150.103 298.594 150.448C298.892 150.784 299.121 151.167 299.28 151.596C299.438 152.016 299.518 152.45 299.518 152.898C299.518 152.991 299.513 153.099 299.504 153.22C299.494 153.332 299.48 153.449 299.462 153.57H293.12V152.59H298.86L298.356 153.01C298.44 152.497 298.379 152.039 298.174 151.638C297.978 151.227 297.693 150.905 297.32 150.672C296.946 150.429 296.526 150.308 296.06 150.308C295.593 150.308 295.159 150.429 294.758 150.672C294.366 150.915 294.058 151.255 293.834 151.694C293.61 152.123 293.521 152.637 293.568 153.234C293.521 153.831 293.614 154.354 293.848 154.802C294.09 155.241 294.417 155.581 294.828 155.824C295.248 156.067 295.696 156.188 296.172 156.188C296.722 156.188 297.184 156.057 297.558 155.796C297.931 155.535 298.234 155.208 298.468 154.816L299.364 155.292C299.214 155.628 298.986 155.941 298.678 156.23C298.37 156.51 298.001 156.739 297.572 156.916C297.152 157.084 296.685 157.168 296.172 157.168ZM304.785 157.168C304.085 157.168 303.45 157 302.881 156.664C302.321 156.319 301.878 155.847 301.551 155.25C301.224 154.653 301.061 153.976 301.061 153.22C301.061 152.464 301.22 151.797 301.537 151.218C301.854 150.63 302.284 150.168 302.825 149.832C303.376 149.496 303.992 149.328 304.673 149.328C305.214 149.328 305.695 149.431 306.115 149.636C306.544 149.832 306.908 150.103 307.207 150.448C307.506 150.784 307.734 151.167 307.893 151.596C308.052 152.016 308.131 152.45 308.131 152.898C308.131 152.991 308.126 153.099 308.117 153.22C308.108 153.332 308.094 153.449 308.075 153.57H301.733V152.59H307.473L306.969 153.01C307.053 152.497 306.992 152.039 306.787 151.638C306.591 151.227 306.306 150.905 305.933 150.672C305.56 150.429 305.14 150.308 304.673 150.308C304.206 150.308 303.772 150.429 303.371 150.672C302.979 150.915 302.671 151.255 302.447 151.694C302.223 152.123 302.134 152.637 302.181 153.234C302.134 153.831 302.228 154.354 302.461 154.802C302.704 155.241 303.03 155.581 303.441 155.824C303.861 156.067 304.309 156.188 304.785 156.188C305.336 156.188 305.798 156.057 306.171 155.796C306.544 155.535 306.848 155.208 307.081 154.816L307.977 155.292C307.828 155.628 307.599 155.941 307.291 156.23C306.983 156.51 306.614 156.739 306.185 156.916C305.765 157.084 305.298 157.168 304.785 157.168ZM309.982 157V146.402H311.032V153.822L310.584 153.752L314.798 149.496H316.156L313.216 152.506L316.422 157H315.162L312.152 152.842L312.824 152.898L310.682 155.11L311.032 154.242V157H309.982ZM321.487 157V147.55H319.527V146.57H322.607V157H321.487ZM324.96 157V156.3L327.872 153.094C328.442 152.469 328.904 151.951 329.258 151.54C329.622 151.129 329.893 150.756 330.07 150.42C330.248 150.084 330.336 149.72 330.336 149.328C330.336 148.703 330.154 148.222 329.79 147.886C329.426 147.55 328.941 147.382 328.334 147.382C327.709 147.382 327.182 147.559 326.752 147.914C326.332 148.269 326.048 148.763 325.898 149.398L324.876 149.174C324.998 148.605 325.217 148.115 325.534 147.704C325.852 147.293 326.248 146.976 326.724 146.752C327.2 146.519 327.732 146.402 328.32 146.402C328.946 146.402 329.492 146.528 329.958 146.78C330.425 147.032 330.789 147.377 331.05 147.816C331.321 148.255 331.456 148.759 331.456 149.328C331.456 149.72 331.372 150.098 331.204 150.462C331.046 150.826 330.803 151.218 330.476 151.638C330.15 152.058 329.73 152.548 329.216 153.108L326.57 156.02H331.736V157H324.96Z" fill="#9195A3"/>
<path d="M5.14179 15V4.57H6.62579L12.3658 12.298L11.5958 12.452V4.57H13.4998V15H12.0018L6.34579 7.216L7.04579 7.062V15H5.14179ZM19.0887 15.168C18.3421 15.168 17.6607 14.9953 17.0447 14.65C16.4381 14.3047 15.9527 13.8333 15.5887 13.236C15.2341 12.6387 15.0567 11.9573 15.0567 11.192C15.0567 10.4267 15.2341 9.74533 15.5887 9.148C15.9527 8.55067 16.4381 8.07933 17.0447 7.734C17.6514 7.38867 18.3327 7.216 19.0887 7.216C19.8354 7.216 20.5121 7.38867 21.1187 7.734C21.7254 8.07933 22.2061 8.55067 22.5607 9.148C22.9247 9.736 23.1067 10.4173 23.1067 11.192C23.1067 11.9573 22.9247 12.6387 22.5607 13.236C22.1967 13.8333 21.7114 14.3047 21.1047 14.65C20.4981 14.9953 19.8261 15.168 19.0887 15.168ZM19.0887 13.488C19.4994 13.488 19.8587 13.39 20.1667 13.194C20.4841 12.998 20.7314 12.7273 20.9087 12.382C21.0954 12.0273 21.1887 11.6307 21.1887 11.192C21.1887 10.744 21.0954 10.352 20.9087 10.016C20.7314 9.67067 20.4841 9.4 20.1667 9.204C19.8587 8.99867 19.4994 8.896 19.0887 8.896C18.6687 8.896 18.3001 8.99867 17.9827 9.204C17.6654 9.4 17.4134 9.67067 17.2267 10.016C17.0494 10.352 16.9607 10.744 16.9607 11.192C16.9607 11.6307 17.0494 12.0273 17.2267 12.382C17.4134 12.7273 17.6654 12.998 17.9827 13.194C18.3001 13.39 18.6687 13.488 19.0887 13.488ZM26.2788 15L23.6608 7.384H25.5928L27.5108 13.166L26.8388 13.152L28.8828 7.384H30.5068L32.5368 13.152L31.8648 13.166L33.7828 7.384H35.7148L33.0968 15H31.4588L29.3868 8.966H30.0028L27.9028 15H26.2788Z" fill="#18191A"/>
<path d="M20.5 22L20.5 141" stroke="#F5ACCD" stroke-linecap="round" stroke-dasharray="5 5"/>
<path d="M112 54L112 140.5" stroke="#ECBFDE" stroke-linecap="round" stroke-dasharray="5 5"/>
<path d="M203 90.5L203 140.5" stroke="#D7B3E5" stroke-linecap="round" stroke-dasharray="5 5"/>
<path d="M294.001 128.5C294.001 128.5 263.01 129.918 233.131 114.723C203.253 99.5272 208.45 77.1019 160.351 72.3634C112.252 67.6249 123.029 55.1557 88.4498 39.074C53.8709 22.9922 22.2 25.169 22.2 25.169" stroke="url(#paint0_linear_6071_10115)" stroke-width="3" stroke-linecap="round"/>
<circle cx="294.5" cy="128.5" r="6.5" fill="#B6A2E8"/>
<defs>
<linearGradient id="paint0_linear_6071_10115" x1="297.091" y1="120.247" x2="25.5748" y2="17.2586" gradientUnits="userSpaceOnUse">
<stop stop-color="#B7A3E9"/>
<stop offset="0.465243" stop-color="#E4BAE4"/>
<stop offset="1" stop-color="#FBC7D4"/>
</linearGradient>
</defs>
</svg>
