<svg width="36" height="36" viewBox="0 0 36 36" fill="none" xmlns="http://www.w3.org/2000/svg">
<path d="M25.3125 5.2002C27.5553 5.20026 29.6835 6.06685 31.2598 7.61621C33.9728 10.2829 34.5136 14.3732 32.5508 17.5615C32.1709 18.159 31.7715 18.6895 31.2783 19.1396L31.2705 19.1465L31.2617 19.1553L18.1875 31.8887L18.1846 31.8916C18.1538 31.9218 18.1303 31.9248 18.1191 31.9248C18.108 31.9248 18.0845 31.9218 18.0537 31.8916L18.0508 31.8896L4.97656 19.1553L4.96777 19.1465L4.95996 19.1396L4.7793 18.9668C4.36724 18.5556 4.01998 18.0844 3.6875 17.5615C1.72187 14.3687 2.23064 10.2822 4.97559 7.62012L4.97852 7.61621C6.55483 6.06686 8.68296 5.20023 10.9258 5.2002C14.4503 5.2002 16.6537 7.21857 17.5713 8.37305L18.1191 9.0625L18.667 8.37305C19.5846 7.21857 21.7879 5.2002 25.3125 5.2002ZM25.3125 5.3623C22.1986 5.3623 19.5949 7.01986 18.2012 9.32422C18.1817 9.35503 18.1489 9.37586 18.0996 9.37598C18.0748 9.37598 18.054 9.37049 18.0371 9.36133L17.9971 9.32422C16.6398 7.015 14.034 5.3623 10.9258 5.3623C8.71347 5.36234 6.67412 6.21725 5.11719 7.70508L5.11035 7.71191C2.45951 10.3175 1.92828 14.347 3.85156 17.4834L3.85449 17.4883C4.19849 18.0377 4.63026 18.5896 5.11035 19.0615L5.1123 19.0645L17.6309 31.252L18.1191 31.7266L18.6074 31.252L31.126 19.0645L31.1279 19.0615C31.5949 18.6025 32.0373 18.085 32.3955 17.4688L32.3945 17.4678C34.2413 14.4041 33.8529 10.5281 31.3672 7.94922L31.1201 7.7041C29.5619 6.2155 27.4827 5.36237 25.3125 5.3623Z" stroke="#5630B0" stroke-width="1.4"/>
</svg>
