<svg width="712" height="48" viewBox="0 0 712 48" fill="none" xmlns="http://www.w3.org/2000/svg">
<path d="M2.88 40V10.2H22.76V15H8.32V23.24H20.96V28.04H8.32V40H2.88ZM35.7288 40.48C33.4888 40.48 31.5288 39.9733 29.8488 38.96C28.1688 37.9467 26.8621 36.5733 25.9288 34.84C24.9954 33.1067 24.5288 31.1867 24.5288 29.08C24.5288 26.8933 24.9954 24.96 25.9288 23.28C26.8888 21.5733 28.1821 20.2267 29.8088 19.24C31.4621 18.2533 33.3021 17.76 35.3288 17.76C37.0354 17.76 38.5288 18.04 39.8088 18.6C41.1154 19.16 42.2221 19.9333 43.1288 20.92C44.0354 21.9067 44.7288 23.04 45.2088 24.32C45.6888 25.5733 45.9288 26.9333 45.9288 28.4C45.9288 28.7733 45.9021 29.16 45.8488 29.56C45.8221 29.96 45.7554 30.3067 45.6488 30.6H28.8487V26.6H42.6888L40.2088 28.48C40.4488 27.2533 40.3821 26.16 40.0088 25.2C39.6621 24.24 39.0754 23.48 38.2488 22.92C37.4488 22.36 36.4754 22.08 35.3288 22.08C34.2354 22.08 33.2621 22.36 32.4088 22.92C31.5554 23.4533 30.9021 24.2533 30.4488 25.32C30.0221 26.36 29.8621 27.6267 29.9688 29.12C29.8621 30.4533 30.0354 31.64 30.4888 32.68C30.9688 33.6933 31.6621 34.48 32.5688 35.04C33.5021 35.6 34.5688 35.88 35.7688 35.88C36.9688 35.88 37.9821 35.6267 38.8088 35.12C39.6621 34.6133 40.3288 33.9333 40.8088 33.08L45.0488 35.16C44.6221 36.2 43.9554 37.12 43.0488 37.92C42.1421 38.72 41.0621 39.3467 39.8088 39.8C38.5821 40.2533 37.2221 40.48 35.7288 40.48ZM56.4228 40.48C54.9028 40.48 53.5828 40.2267 52.4628 39.72C51.3428 39.2133 50.4761 38.4933 49.8628 37.56C49.2495 36.6 48.9428 35.4933 48.9428 34.24C48.9428 33.04 49.2095 31.9733 49.7428 31.04C50.2761 30.08 51.1028 29.28 52.2228 28.64C53.3428 28 54.7561 27.5467 56.4628 27.28L63.5828 26.12V30.12L57.4628 31.16C56.4228 31.3467 55.6495 31.68 55.1428 32.16C54.6361 32.64 54.3828 33.2667 54.3828 34.04C54.3828 34.7867 54.6628 35.3867 55.2228 35.84C55.8095 36.2667 56.5295 36.48 57.3828 36.48C58.4761 36.48 59.4361 36.2533 60.2628 35.8C61.1161 35.32 61.7695 34.6667 62.2228 33.84C62.7028 33.0133 62.9428 32.1067 62.9428 31.12V25.52C62.9428 24.5867 62.5695 23.8133 61.8228 23.2C61.1028 22.56 60.1428 22.24 58.9428 22.24C57.8228 22.24 56.8228 22.5467 55.9428 23.16C55.0895 23.7467 54.4628 24.5333 54.0628 25.52L49.7828 23.44C50.2095 22.2933 50.8761 21.3067 51.7828 20.48C52.7161 19.6267 53.8095 18.96 55.0628 18.48C56.3161 18 57.6761 17.76 59.1428 17.76C60.9295 17.76 62.5028 18.0933 63.8628 18.76C65.2228 19.4 66.2761 20.3067 67.0228 21.48C67.7961 22.6267 68.1828 23.9733 68.1828 25.52V40H63.2228V36.28L64.3428 36.2C63.7828 37.1333 63.1161 37.92 62.3428 38.56C61.5695 39.1733 60.6895 39.6533 59.7028 40C58.7161 40.32 57.6228 40.48 56.4228 40.48ZM82.5553 40.24C80.102 40.24 78.1953 39.5733 76.8353 38.24C75.502 36.88 74.8353 34.9733 74.8353 32.52V22.92H71.0753V18.24H71.4753C72.542 18.24 73.3686 17.96 73.9553 17.4C74.542 16.84 74.8353 16.0267 74.8353 14.96V13.28H80.0753V18.24H85.0753V22.92H80.0753V32.24C80.0753 32.96 80.1953 33.5733 80.4353 34.08C80.702 34.5867 81.102 34.9733 81.6353 35.24C82.1953 35.5067 82.902 35.64 83.7553 35.64C83.942 35.64 84.1553 35.6267 84.3953 35.6C84.662 35.5733 84.9153 35.5467 85.1553 35.52V40C84.782 40.0533 84.3553 40.1067 83.8753 40.16C83.3953 40.2133 82.9553 40.24 82.5553 40.24ZM96.9188 40.48C95.2388 40.48 93.7721 40.1067 92.5188 39.36C91.2921 38.6133 90.3454 37.5733 89.6788 36.24C89.0388 34.9067 88.7188 33.3467 88.7188 31.56V18.24H93.9588V31.12C93.9588 32.0267 94.1321 32.8267 94.4788 33.52C94.8521 34.1867 95.3721 34.72 96.0388 35.12C96.7321 35.4933 97.5054 35.68 98.3588 35.68C99.2121 35.68 99.9721 35.4933 100.639 35.12C101.305 34.72 101.825 34.1733 102.199 33.48C102.572 32.7867 102.759 31.96 102.759 31V18.24H107.999V40H103.039V35.72L103.479 36.48C102.972 37.8133 102.132 38.8133 100.959 39.48C99.8121 40.1467 98.4654 40.48 96.9188 40.48ZM112.87 40V18.24H117.79V23.08L117.39 22.36C117.896 20.7333 118.683 19.6 119.75 18.96C120.843 18.32 122.15 18 123.67 18H124.95V22.64H123.07C121.576 22.64 120.376 23.1067 119.47 24.04C118.563 24.9467 118.11 26.2267 118.11 27.88V40H112.87ZM138.151 40.48C135.911 40.48 133.951 39.9733 132.271 38.96C130.591 37.9467 129.284 36.5733 128.351 34.84C127.417 33.1067 126.951 31.1867 126.951 29.08C126.951 26.8933 127.417 24.96 128.351 23.28C129.311 21.5733 130.604 20.2267 132.231 19.24C133.884 18.2533 135.724 17.76 137.751 17.76C139.457 17.76 140.951 18.04 142.231 18.6C143.537 19.16 144.644 19.9333 145.551 20.92C146.457 21.9067 147.151 23.04 147.631 24.32C148.111 25.5733 148.351 26.9333 148.351 28.4C148.351 28.7733 148.324 29.16 148.271 29.56C148.244 29.96 148.177 30.3067 148.071 30.6H131.271V26.6H145.111L142.631 28.48C142.871 27.2533 142.804 26.16 142.431 25.2C142.084 24.24 141.497 23.48 140.671 22.92C139.871 22.36 138.897 22.08 137.751 22.08C136.657 22.08 135.684 22.36 134.831 22.92C133.977 23.4533 133.324 24.2533 132.871 25.32C132.444 26.36 132.284 27.6267 132.391 29.12C132.284 30.4533 132.457 31.64 132.911 32.68C133.391 33.6933 134.084 34.48 134.991 35.04C135.924 35.6 136.991 35.88 138.191 35.88C139.391 35.88 140.404 35.6267 141.231 35.12C142.084 34.6133 142.751 33.9333 143.231 33.08L147.471 35.16C147.044 36.2 146.377 37.12 145.471 37.92C144.564 38.72 143.484 39.3467 142.231 39.8C141.004 40.2533 139.644 40.48 138.151 40.48ZM162.443 40.48C160.336 40.48 158.456 39.9867 156.803 39C155.149 37.9867 153.843 36.6133 152.883 34.88C151.923 33.1467 151.443 31.2267 151.443 29.12C151.443 26.9867 151.923 25.0667 152.883 23.36C153.843 21.6533 155.149 20.2933 156.803 19.28C158.483 18.2667 160.349 17.76 162.403 17.76C164.056 17.76 165.523 18.0933 166.803 18.76C168.109 19.4 169.136 20.3067 169.883 21.48L169.083 22.56V9.72H174.323V40H169.363V35.8L169.923 36.84C169.176 38.0133 168.136 38.92 166.803 39.56C165.469 40.1733 164.016 40.48 162.443 40.48ZM163.003 35.68C164.203 35.68 165.256 35.4 166.163 34.84C167.069 34.28 167.776 33.5067 168.283 32.52C168.816 31.5333 169.083 30.4 169.083 29.12C169.083 27.8667 168.816 26.7467 168.283 25.76C167.776 24.7467 167.069 23.96 166.163 23.4C165.256 22.84 164.203 22.56 163.003 22.56C161.829 22.56 160.776 22.8533 159.843 23.44C158.909 24 158.176 24.7733 157.643 25.76C157.136 26.72 156.883 27.84 156.883 29.12C156.883 30.4 157.136 31.5333 157.643 32.52C158.176 33.5067 158.909 34.28 159.843 34.84C160.776 35.4 161.829 35.68 163.003 35.68ZM186.307 40V18.24H191.547V40H186.307ZM186.307 15.8V10.2H191.547V15.8H186.307ZM196.385 40V18.24H201.305V22.52L200.905 21.76C201.412 20.4533 202.239 19.4667 203.385 18.8C204.559 18.1067 205.919 17.76 207.465 17.76C209.065 17.76 210.479 18.1067 211.705 18.8C212.959 19.4933 213.932 20.4667 214.625 21.72C215.319 22.9467 215.665 24.3733 215.665 26V40H210.425V27.24C210.425 26.28 210.239 25.4533 209.865 24.76C209.492 24.0667 208.972 23.5333 208.305 23.16C207.665 22.76 206.905 22.56 206.025 22.56C205.172 22.56 204.412 22.76 203.745 23.16C203.079 23.5333 202.559 24.0667 202.185 24.76C201.812 25.4533 201.625 26.28 201.625 27.24V40H196.385Z" fill="#18191A"/>
<path d="M338.337 43.1528L341.76 9.51234C341.953 7.7874 342.291 7.49952 342.869 7.49952H343.207V5.58312H337.662V7.49952H337.999C338.771 7.49952 339.156 8.02691 339.06 9.51234L337.083 29.6391L334.817 9.51234C334.624 7.93118 335.01 7.49952 335.878 7.49952H335.974V5.58312H328.259V7.49952H328.646C329.369 7.49952 329.369 7.7874 329.514 9.51234L330.092 14.6404L328.308 30.9331L326.283 9.51234C326.042 7.7874 326.379 7.49952 327.151 7.49952H327.247V5.58312H319.436V7.49952H319.822C320.641 7.49952 320.689 7.7874 320.882 9.51234L324.354 43.1528H329.369L331.346 25.853L333.371 43.1528H338.337ZM371.56 21.1095C371.56 18.7615 371.56 17.9465 373.055 17.9465C374.067 17.9465 374.067 18.3298 374.067 20.2946V40.3734C374.067 41.0926 373.826 41.236 373.44 41.236H373.2V43.1524H380.962V41.236H380.625C380.095 41.236 379.95 41.0439 379.95 40.2773V19.2408C379.95 15.79 379.227 14.448 375.803 14.448C373.826 14.448 372.38 15.0711 371.464 17.227C371.077 15.3106 370.065 14.448 367.413 14.448C365.243 14.448 364.086 15.1191 363.219 17.227V14.448L356.564 14.9754V16.8918H356.853C357.287 16.8918 357.625 17.227 357.625 18.2821V40.1332C357.625 40.9958 357.432 41.236 356.853 41.236H356.564V43.1524H363.99V41.236H363.701C363.315 41.236 363.219 41.0922 363.219 40.5168V21.1095C363.219 18.7615 363.17 17.9465 364.664 17.9465C365.677 17.9465 365.677 18.3298 365.677 20.2946V40.3734C365.677 41.0926 365.436 41.236 365.098 41.236H364.761V43.1524H372.38V41.236H372.283C371.753 41.236 371.56 41.0439 371.56 40.2773V21.1095ZM425.806 43.1528H435.113V41.2363H434.485C433.666 41.2363 433.425 40.9004 433.425 39.2235V24.7512H438.343V39.2232C438.343 40.9001 438.102 41.236 437.33 41.236H436.607V43.1524H445.865V41.236H445.094C444.273 41.236 444.129 40.9001 444.129 39.2232V9.51234C444.129 7.7874 444.273 7.49952 445.094 7.49952H445.865V5.58312H436.607V7.49952H437.33C438.102 7.49952 438.343 7.7874 438.343 9.51234V22.4982H433.425V9.51234C433.425 7.7874 433.666 7.49952 434.485 7.49952H435.113V5.58312H425.806V7.49952H426.626C427.398 7.49952 427.639 7.7874 427.639 9.51234V40.1812C427.639 40.9962 427.398 41.2363 426.626 41.2363H425.806V43.1528ZM496.11 43.1528H503.487V41.2363H503.246C502.764 41.2363 502.715 41.0926 502.715 40.5171V21.1095C502.715 18.7615 502.764 17.9465 504.259 17.9465C505.367 17.9465 505.367 18.3298 505.367 20.2946V40.3734C505.367 41.0926 505.175 41.236 504.838 41.236H504.5V43.1524H512.311V41.236H511.974C511.443 41.236 511.347 41.0439 511.347 40.2773V19.2408C511.347 15.79 510.479 14.448 507.103 14.448C504.886 14.448 503.632 15.1191 502.715 17.227V5.00769L495.628 5.58312V7.49952H496.351C496.833 7.49952 497.122 7.7874 497.122 8.84185V40.1332C497.122 40.9958 496.977 41.236 496.351 41.236H496.11V43.1528ZM348.752 43.488C354.925 43.488 355.792 38.3606 355.792 28.968C355.792 19.528 354.876 14.448 348.752 14.448C342.629 14.448 341.713 19.528 341.713 28.968C341.713 38.3606 342.581 43.488 348.752 43.488ZM395.476 43.1528H402.902V41.2363H402.564C402.131 41.2363 402.131 41.0926 402.131 40.5171V21.1095C402.131 18.7615 402.131 17.9465 403.673 17.9465C404.734 17.9465 404.783 18.3298 404.783 20.2946V40.3734C404.783 41.0926 404.494 41.236 404.204 41.236H403.866V43.1524H411.677V41.236H411.34C410.809 41.236 410.665 41.0439 410.665 40.2773V19.2408C410.665 15.79 409.845 14.448 406.421 14.448C404.253 14.448 402.95 15.1191 402.131 17.227V14.448L394.994 14.9754V16.8918H395.766C396.2 16.8918 396.537 17.227 396.537 18.2821V40.1332C396.537 40.9958 396.345 41.236 395.766 41.236H395.477V43.1528H395.476ZM463.899 43.488C466.454 43.488 467.419 42.2428 467.949 40.7567C468.431 42.9609 468.961 43.488 471.854 43.488C475.23 43.488 475.664 41.4759 475.616 37.546H474.024C474.024 40.3737 473.976 40.6609 473.445 40.6609C472.963 40.6609 472.963 40.4214 472.963 38.8396V20.1989C472.963 16.4131 471.71 14.4483 467.274 14.4483C463.754 14.4483 460.282 15.5027 460.475 19.2882C460.572 21.0138 461.247 22.8345 463.079 22.7384C464.766 22.6427 465.538 21.7327 465.538 20.3423C465.538 19.3843 464.814 17.8024 463.658 16.9398C464.092 16.7483 464.766 16.5558 465.875 16.5558C467.13 16.5558 467.37 17.5146 467.37 19.3356V24.5587C460.957 26.7153 459.607 27.578 459.607 35.5808C459.607 41.3321 461.006 43.488 463.899 43.488ZM452.857 43.488C457.63 43.488 458.739 42.0506 458.498 34.1918H456.521C456.521 40.4214 456.328 40.9004 454.11 40.9004C451.458 40.9004 451.458 39.7502 451.458 29.0647V28.2014H459.172C459.172 17.4198 457.968 14.4486 452.856 14.4486C448.228 14.4486 445.817 17.2764 445.817 29.1601C445.817 40.4691 447.649 43.5364 452.857 43.488ZM388.774 43.488C393.451 43.488 394.753 42.0506 394.56 34.1918H392.584C392.584 40.4214 392.295 40.9004 390.028 40.9004C387.183 40.9004 387.328 39.7502 387.328 29.0647V28.2014H394.801C394.801 17.4198 393.789 14.4486 388.774 14.4486C384.098 14.4486 381.686 17.2764 381.686 29.1601C381.686 40.4691 383.518 43.5364 388.774 43.488ZM476.678 43.1528H484.393V41.2363H483.814C483.331 41.2363 483.138 40.9962 483.138 40.2299V5.00769L475.954 5.58312V7.49952H476.774C477.256 7.49952 477.449 7.691 477.449 8.45823V40.3257C477.449 41.0442 477.4 41.2363 477.063 41.2363H476.677V43.1528H476.678ZM420.357 43.488C423.878 43.488 425.71 41.1876 425.71 37.7381C425.71 29.6395 418.333 24.943 418.333 19.1444C418.333 17.3711 418.96 16.8441 420.213 16.8441C422.045 16.8441 422.335 17.611 422.672 20.3423L422.961 23.0256H425.082V14.6875H423.396C423.299 15.7426 423.058 16.1255 422.961 15.9814C422.432 15.3586 421.177 14.4483 419.104 14.4483C416.018 14.4483 413.318 15.838 413.318 20.3903C413.318 27.4826 420.647 32.8979 420.647 38.3129C420.647 40.6609 420.117 41.0442 418.429 41.0442C416.742 41.0442 416.308 40.278 415.971 36.7317L415.729 34.383H413.511V43.1528H415.44C415.585 42.194 415.923 41.5716 416.211 41.8588C416.838 42.578 417.513 43.488 420.357 43.488ZM485.839 37.211C485.839 41.7631 486.514 43.488 491.046 43.488C494.228 43.488 494.952 42.2428 494.952 38.7445V33.9997H493.023V38.984C493.023 40.6609 492.879 40.8524 492.252 40.8524C491.625 40.8524 491.481 40.6609 491.481 39.1755V16.8441H495.001V14.6875H491.529V7.49952H489.552C488.153 13.8735 486.949 14.6875 485.068 14.6875H484.538V16.796H485.839L485.839 37.211ZM348.752 41.0439C347.403 41.0439 347.403 40.2776 347.403 28.968C347.403 17.611 347.403 16.8441 348.752 16.8441C350.102 16.8441 350.103 17.611 350.103 28.968C350.103 40.3257 350.102 41.0439 348.752 41.0439ZM412.353 15.8864C417.175 12.3394 418.14 9.65611 416.548 7.21231C415.68 5.87066 413.703 5.00803 412.256 6.20591C410.52 7.6433 410.954 10.1358 414.185 11.5735C413.606 12.244 412.256 13.5386 411.147 14.6408L412.353 15.8864ZM466.213 40.1332C465.056 40.1332 465.056 38.936 465.056 35.1502C465.056 28.2495 465.056 27.3388 467.37 26.0929V37.9292C467.37 39.7022 467.13 40.1332 466.213 40.1332ZM387.327 26.1889C387.424 17.2273 387.569 16.7964 388.822 16.7964C390.028 16.7964 389.932 17.2761 389.932 26.1889H387.327ZM451.459 26.1889C451.604 17.2273 451.7 16.7964 452.954 16.7964C454.207 16.7964 454.014 17.2761 454.014 26.1889H451.459Z" fill="#5630B0"/>
<path fill-rule="evenodd" clip-rule="evenodd" d="M656.501 17.0932C654.239 17.0932 652.449 17.5612 650.658 18.591C650.658 13.4423 650.658 8.66829 650.847 7.0769L639.822 9.04275V9.97885L640.953 10.166C642.461 10.4469 642.932 11.2893 643.214 13.2552C643.497 17.1868 643.403 37.8746 643.214 41.3382C646.135 41.9935 649.245 42.4615 652.354 42.4615C661.023 42.4615 666.206 37.1257 666.206 28.7008C666.3 21.9609 662.059 17.0932 656.501 17.0932ZM652.731 40.5893C652.072 40.5893 651.224 40.5893 650.753 40.4021C650.564 38.1555 650.47 28.6073 650.564 20.1823C651.506 19.9015 652.166 19.7142 653.014 19.7142C656.594 19.7142 658.573 23.9268 658.573 29.0753C658.573 35.628 656.123 40.5893 652.731 40.5893ZM598.739 7.73198H570V9.22972L571.602 9.41701C573.769 9.69783 574.523 11.0084 574.9 14.0975C575.371 19.9013 575.182 30.4793 574.9 35.5342C574.617 38.6234 573.769 40.0275 571.602 40.2148L570 40.4956V41.8061H588.468V40.4956L586.49 40.2148C584.322 40.0275 583.569 38.6234 583.192 35.5342C583.003 33.3812 582.909 30.0113 582.909 25.7988L586.867 25.9859C589.317 25.9859 590.447 27.9518 590.918 30.6664H592.426V19.0589H590.918C590.447 21.7735 589.317 23.7394 586.867 23.7394L582.909 23.9265C582.909 18.4036 583.098 13.2551 583.192 10.1659H588.94C593.368 10.1659 595.63 12.8806 597.232 17.7483L598.833 17.2803L598.739 7.73198Z" fill="#5630B0"/>
<path fill-rule="evenodd" clip-rule="evenodd" d="M607.973 16.8124C616.17 16.8124 620.222 22.3354 620.222 29.637C620.222 36.5642 615.699 42.4616 607.501 42.4616C599.304 42.4616 595.252 36.9386 595.252 29.637C595.252 22.6163 599.869 16.8124 607.973 16.8124ZM607.501 18.4038C603.921 18.4038 602.979 23.2715 602.979 29.5434C602.979 35.7216 604.58 40.683 607.878 40.683C611.647 40.683 612.59 35.8153 612.59 29.5434C612.59 23.4588 610.988 18.4038 607.501 18.4038ZM668.372 29.7307C668.372 23.0844 672.613 16.7189 680.904 16.7189C687.783 16.7189 690.986 21.7738 690.986 28.4201H675.816C675.628 34.4112 678.549 38.8109 684.485 38.8109C687.123 38.8109 688.443 38.1556 690.045 37.0323L690.704 37.8748C689.102 40.1214 685.521 42.3681 680.904 42.3681C673.649 42.4616 668.372 37.2195 668.372 29.7307ZM675.911 26.7352L683.543 26.548C683.543 23.2716 683.071 18.4039 680.245 18.4039C677.512 18.4039 676.099 22.9908 675.911 26.7352ZM710.492 18.123C708.513 17.2805 705.968 16.8124 702.953 16.8124C696.922 16.8124 693.153 20.3696 693.153 24.5821C693.153 28.7946 695.886 30.5731 699.844 31.8837C703.896 33.3814 705.027 34.5047 705.027 36.3769C705.027 38.3428 703.518 40.1213 700.975 40.1213C697.865 40.1213 695.603 38.3428 693.813 33.4751L692.683 33.7559L692.871 40.8703C694.85 41.7127 698.431 42.368 701.539 42.368C707.947 42.368 711.999 39.0916 711.999 34.1303C711.999 30.7603 710.209 28.7946 705.968 27.2032C701.446 25.4246 699.75 24.3012 699.75 22.1482C699.75 19.9952 701.258 18.591 703.142 18.591C706.063 18.591 708.042 20.3696 709.549 24.7693L710.68 24.4884L710.492 18.123ZM641.423 17.4678C638.691 15.8764 633.791 16.6253 631.152 22.5228L631.341 16.8125L620.411 18.9655V19.9016L621.541 20.0889C623.049 20.2761 623.708 21.025 623.803 23.1781C624.085 27.1096 623.991 33.8495 623.803 37.3131C623.614 39.279 622.955 40.2151 621.541 40.4023L620.411 40.5895V41.9H635.581V40.5895L633.602 40.4023C632 40.2151 631.435 39.279 631.341 37.3131C631.058 34.224 631.058 28.0457 631.152 24.2077C632 23.0844 635.581 22.0547 638.785 24.2077L641.423 17.4678Z" fill="#5630B0"/>
</svg>
