<svg width="40" height="40" viewBox="0 0 40 40" fill="none" xmlns="http://www.w3.org/2000/svg">
<circle cx="20" cy="20" r="20" fill="#EAE2FF"/>
<mask id="path-2-inside-1_5911_7245" fill="white">
<path d="M20.3149 29.375C20.2221 29.375 20.1277 29.3735 20.0334 29.369C16.3518 29.2304 13.3214 26.2531 13.1343 22.5914C13.0489 20.9157 13.555 19.2578 14.5626 17.9234L16.2994 15.617C16.5359 15.3039 16.9282 15.1817 17.3025 15.3054C17.6753 15.4292 17.9164 15.7631 17.9164 16.1537V17.7028C17.9164 18.1172 18.2233 18.4616 18.6141 18.487C18.8252 18.5019 19.0243 18.4303 19.177 18.2872C19.2522 18.2185 19.3121 18.1348 19.3529 18.0416C19.3936 17.9484 19.4143 17.8477 19.4136 17.746V14.317C19.4136 14.2886 19.4166 14.2618 19.4211 14.235C19.5289 12.422 20.9003 10.9147 22.7059 10.6359C23.0698 10.5793 23.4291 10.7463 23.6192 11.0579C23.7116 11.2085 23.7568 11.3831 23.7491 11.5594C23.7414 11.7357 23.681 11.9058 23.5758 12.0478L23.453 12.2148C22.947 12.9021 22.956 13.8548 23.474 14.5331L26.0612 17.9219L26.0627 17.9234C27.0029 19.1698 27.5 20.6548 27.5 22.2172C27.5 24.1807 26.7185 26.0115 25.2976 27.3727C23.9441 28.6698 22.1849 29.375 20.3149 29.375ZM17.018 16.1552L15.2813 18.4616C14.4009 19.629 13.9577 21.0797 14.0326 22.5467C14.1958 25.7506 16.8474 28.3552 20.0678 28.476C21.7956 28.5401 23.4306 27.9214 24.6733 26.7302C25.916 25.5389 26.6002 23.9362 26.6002 22.2187C26.6002 20.8515 26.166 19.553 25.344 18.4631L22.7583 15.0743C22.0022 14.0829 21.9903 12.6904 22.7284 11.687L22.8512 11.5185C21.4393 11.7362 20.3763 12.92 20.3149 14.3348C20.3149 14.3483 20.3134 14.3617 20.3119 14.3751V17.746C20.3119 18.1978 20.1217 18.6331 19.7909 18.9432C19.4555 19.2563 19.0153 19.4113 18.5557 19.383C17.6933 19.3264 17.018 18.5899 17.018 17.7058V16.1552Z"/>
</mask>
<path d="M20.3149 29.375C20.2221 29.375 20.1277 29.3735 20.0334 29.369C16.3518 29.2304 13.3214 26.2531 13.1343 22.5914C13.0489 20.9157 13.555 19.2578 14.5626 17.9234L16.2994 15.617C16.5359 15.3039 16.9282 15.1817 17.3025 15.3054C17.6753 15.4292 17.9164 15.7631 17.9164 16.1537V17.7028C17.9164 18.1172 18.2233 18.4616 18.6141 18.487C18.8252 18.5019 19.0243 18.4303 19.177 18.2872C19.2522 18.2185 19.3121 18.1348 19.3529 18.0416C19.3936 17.9484 19.4143 17.8477 19.4136 17.746V14.317C19.4136 14.2886 19.4166 14.2618 19.4211 14.235C19.5289 12.422 20.9003 10.9147 22.7059 10.6359C23.0698 10.5793 23.4291 10.7463 23.6192 11.0579C23.7116 11.2085 23.7568 11.3831 23.7491 11.5594C23.7414 11.7357 23.681 11.9058 23.5758 12.0478L23.453 12.2148C22.947 12.9021 22.956 13.8548 23.474 14.5331L26.0612 17.9219L26.0627 17.9234C27.0029 19.1698 27.5 20.6548 27.5 22.2172C27.5 24.1807 26.7185 26.0115 25.2976 27.3727C23.9441 28.6698 22.1849 29.375 20.3149 29.375ZM17.018 16.1552L15.2813 18.4616C14.4009 19.629 13.9577 21.0797 14.0326 22.5467C14.1958 25.7506 16.8474 28.3552 20.0678 28.476C21.7956 28.5401 23.4306 27.9214 24.6733 26.7302C25.916 25.5389 26.6002 23.9362 26.6002 22.2187C26.6002 20.8515 26.166 19.553 25.344 18.4631L22.7583 15.0743C22.0022 14.0829 21.9903 12.6904 22.7284 11.687L22.8512 11.5185C21.4393 11.7362 20.3763 12.92 20.3149 14.3348C20.3149 14.3483 20.3134 14.3617 20.3119 14.3751V17.746C20.3119 18.1978 20.1217 18.6331 19.7909 18.9432C19.4555 19.2563 19.0153 19.4113 18.5557 19.383C17.6933 19.3264 17.018 18.5899 17.018 17.7058V16.1552Z" fill="#5630B0"/>
<path d="M20.0334 29.369L20.0808 28.3701L20.071 28.3697L20.0334 29.369ZM13.1343 22.5914L12.1356 22.6423L12.1356 22.6425L13.1343 22.5914ZM14.5626 17.9234L15.3606 18.5261L15.3615 18.525L14.5626 17.9234ZM16.2994 15.617L15.5015 15.0142L15.5005 15.0155L16.2994 15.617ZM17.3025 15.3054L17.6175 14.3563L17.6164 14.356L17.3025 15.3054ZM18.6141 18.487L18.6845 17.4895L18.6788 17.4891L18.6141 18.487ZM19.177 18.2872L18.5023 17.549L18.4932 17.5576L19.177 18.2872ZM19.4136 17.746H18.4135L18.4136 17.7532L19.4136 17.746ZM19.4211 14.235L20.4073 14.4L20.4161 14.3475L20.4193 14.2943L19.4211 14.235ZM22.7059 10.6359L22.8585 11.6242L22.8598 11.624L22.7059 10.6359ZM23.6192 11.0579L22.7656 11.5788L22.7668 11.5807L23.6192 11.0579ZM23.5758 12.0478L22.7723 11.4525L22.7701 11.4554L23.5758 12.0478ZM23.453 12.2148L24.2583 12.8077L24.2587 12.8072L23.453 12.2148ZM23.474 14.5331L24.2688 13.9263L24.2688 13.9262L23.474 14.5331ZM26.0612 17.9219L25.2663 18.5288L25.3076 18.5828L25.3557 18.6307L26.0612 17.9219ZM26.0627 17.9234L26.861 17.3212L26.8183 17.2647L26.7682 17.2147L26.0627 17.9234ZM25.2976 27.3727L24.6058 26.6506L24.6057 26.6507L25.2976 27.3727ZM17.018 16.1552H18.018V13.1648L16.2192 15.5537L17.018 16.1552ZM15.2813 18.4616L16.0797 19.0638L16.0801 19.0632L15.2813 18.4616ZM14.0326 22.5467L15.0313 22.4958L15.0313 22.4957L14.0326 22.5467ZM20.0678 28.476L20.0304 29.4753L20.0308 29.4753L20.0678 28.476ZM25.344 18.4631L26.1424 17.861L26.139 17.8565L25.344 18.4631ZM22.7583 15.0743L21.9632 15.6807L21.9633 15.6809L22.7583 15.0743ZM22.7284 11.687L23.5339 12.2796L23.5366 12.276L22.7284 11.687ZM22.8512 11.5185L23.6593 12.1075L25.0758 10.1637L22.6988 10.5302L22.8512 11.5185ZM20.3149 14.3348L19.3158 14.2915L19.3149 14.3132V14.3348H20.3149ZM20.3119 14.3751L19.3181 14.2642L19.3119 14.3195V14.3751H20.3119ZM19.7909 18.9432L20.4733 19.6742L20.4747 19.6728L19.7909 18.9432ZM18.5557 19.383L18.4901 20.3809L18.4942 20.3811L18.5557 19.383ZM20.3149 29.375V28.375C20.2323 28.375 20.1546 28.3737 20.0808 28.3702L20.0334 29.369L19.986 30.3679C20.1009 30.3734 20.2118 30.375 20.3149 30.375V29.375ZM20.0334 29.369L20.071 28.3697C16.9031 28.2504 14.2935 25.6809 14.133 22.5404L13.1343 22.5914L12.1356 22.6425C12.3494 26.8253 15.8005 30.2103 19.9958 30.3683L20.0334 29.369ZM13.1343 22.5914L14.133 22.5406C14.0595 21.0977 14.4956 19.6716 15.3606 18.5261L14.5626 17.9234L13.7646 17.3208C12.6144 18.844 12.0384 20.7336 12.1356 22.6423L13.1343 22.5914ZM14.5626 17.9234L15.3615 18.525L17.0982 16.2186L16.2994 15.617L15.5005 15.0155L13.7638 17.3219L14.5626 17.9234ZM16.2994 15.617L17.0972 16.2199C17.0911 16.228 17.0741 16.2436 17.0462 16.2523C17.0183 16.261 16.9964 16.2574 16.9886 16.2549L17.3025 15.3054L17.6164 14.356C16.8367 14.0982 15.997 14.3584 15.5015 15.0142L16.2994 15.617ZM17.3025 15.3054L16.9875 16.2545C16.9769 16.251 16.9563 16.2395 16.9389 16.2155C16.9215 16.1914 16.9164 16.1672 16.9164 16.1537H17.9164H18.9164C18.9164 15.3307 18.3979 14.6154 17.6175 14.3563L17.3025 15.3054ZM17.9164 16.1537H16.9164V17.7028H17.9164H18.9164V16.1537H17.9164ZM17.9164 17.7028H16.9164C16.9164 18.5969 17.5863 19.4224 18.5493 19.4849L18.6141 18.487L18.6788 17.4891C18.7655 17.4947 18.83 17.5359 18.8656 17.5759C18.9007 17.6153 18.9164 17.6613 18.9164 17.7028H17.9164ZM18.6141 18.487L18.5436 19.4845C19.0337 19.5191 19.5058 19.3496 19.8608 19.0169L19.177 18.2872L18.4932 17.5576C18.5152 17.5369 18.5453 17.5174 18.582 17.5043C18.6188 17.4912 18.6546 17.4874 18.6845 17.4895L18.6141 18.487ZM19.177 18.2872L19.8517 19.0253C20.03 18.8624 20.1723 18.6637 20.2692 18.4421L19.3529 18.0416L18.4366 17.6411C18.452 17.6058 18.4745 17.5746 18.5024 17.5491L19.177 18.2872ZM19.3529 18.0416L20.2692 18.4421C20.3661 18.2204 20.4153 17.9809 20.4135 17.7388L19.4136 17.746L18.4136 17.7532C18.4133 17.7145 18.4212 17.6763 18.4366 17.6411L19.3529 18.0416ZM19.4136 17.746H20.4136V14.317H19.4136H18.4136V17.746H19.4136ZM19.4136 14.317H20.4136C20.4136 14.3601 20.4089 14.3909 20.4073 14.4L19.4211 14.235L18.4348 14.0699C18.4243 14.1326 18.4136 14.2172 18.4136 14.317H19.4136ZM19.4211 14.235L20.4193 14.2943C20.4991 12.953 21.5169 11.8314 22.8585 11.6242L22.7059 10.6359L22.5533 9.64764C20.2837 9.99809 18.5587 11.8911 18.4228 14.1756L19.4211 14.235ZM22.7059 10.6359L22.8598 11.624C22.8255 11.6294 22.7867 11.6133 22.7656 11.5788L23.6192 11.0579L24.4728 10.537C24.0715 9.87923 23.314 9.52919 22.5521 9.64784L22.7059 10.6359ZM23.6192 11.0579L22.7668 11.5807C22.755 11.5615 22.749 11.5388 22.75 11.5156L23.7491 11.5594L24.7481 11.6032C24.7646 11.2274 24.6682 10.8555 24.4717 10.535L23.6192 11.0579ZM23.7491 11.5594L22.75 11.5156C22.7511 11.4924 22.759 11.4705 22.7723 11.4526L23.5758 12.0478L24.3793 12.6431C24.6031 12.3411 24.7316 11.9791 24.7481 11.6032L23.7491 11.5594ZM23.5758 12.0478L22.7701 11.4554L22.6474 11.6224L23.453 12.2148L24.2587 12.8072L24.3815 12.6402L23.5758 12.0478ZM23.453 12.2148L22.6478 11.6219C21.8778 12.6676 21.8919 14.109 22.6792 15.1401L23.474 14.5331L24.2688 13.9262C24.02 13.6005 24.0161 13.1366 24.2583 12.8077L23.453 12.2148ZM23.474 14.5331L22.6792 15.14L25.2663 18.5288L26.0612 17.9219L26.856 17.3151L24.2688 13.9263L23.474 14.5331ZM26.0612 17.9219L25.3557 18.6307L25.3572 18.6322L26.0627 17.9234L26.7682 17.2147L26.7667 17.2132L26.0612 17.9219ZM26.0627 17.9234L25.2644 18.5257C26.0736 19.5984 26.5 20.8719 26.5 22.2172H27.5H28.5C28.5 20.4376 27.9322 18.7412 26.861 17.3212L26.0627 17.9234ZM27.5 22.2172H26.5C26.5 23.9077 25.83 25.4778 24.6058 26.6506L25.2976 27.3727L25.9894 28.0948C27.6069 26.5453 28.5 24.4537 28.5 22.2172H27.5ZM25.2976 27.3727L24.6057 26.6507C23.4386 27.7692 21.9273 28.375 20.3149 28.375V29.375V30.375C22.4425 30.375 24.4497 29.5704 25.9895 28.0947L25.2976 27.3727ZM17.018 16.1552L16.2192 15.5537L14.4824 17.8601L15.2813 18.4616L16.0801 19.0632L17.8169 16.7568L17.018 16.1552ZM15.2813 18.4616L14.4829 17.8595C13.4603 19.2154 12.9471 20.8975 13.0339 22.5977L14.0326 22.5467L15.0313 22.4957C14.9683 21.2618 15.3415 20.0426 16.0797 19.0638L15.2813 18.4616ZM14.0326 22.5467L13.0339 22.5976C13.2236 26.3228 16.2961 29.3353 20.0304 29.4753L20.0678 28.476L20.1053 27.4767C17.3986 27.3752 15.1679 25.1784 15.0313 22.4958L14.0326 22.5467ZM20.0678 28.476L20.0308 29.4753C22.0271 29.5494 23.9257 28.832 25.3653 27.452L24.6733 26.7302L23.9813 26.0083C22.9355 27.0107 21.5642 27.5308 20.1049 27.4767L20.0678 28.476ZM24.6733 26.7302L25.3653 27.452C26.8043 26.0726 27.6002 24.2093 27.6002 22.2187H26.6002H25.6002C25.6002 23.6632 25.0276 25.0053 23.9813 26.0083L24.6733 26.7302ZM26.6002 22.2187H27.6002C27.6002 20.6347 27.0955 19.1247 26.1424 17.861L25.344 18.4631L24.5456 19.0653C25.2365 19.9813 25.6002 21.0684 25.6002 22.2187H26.6002ZM25.344 18.4631L26.139 17.8565L23.5533 14.4677L22.7583 15.0743L21.9633 15.6809L24.549 19.0697L25.344 18.4631ZM22.7583 15.0743L23.5535 14.4679C23.0665 13.8293 23.059 12.9251 23.5339 12.2796L22.7284 11.687L21.9229 11.0944C20.9215 12.4556 20.938 14.3364 21.9632 15.6807L22.7583 15.0743ZM22.7284 11.687L23.5366 12.276L23.6593 12.1075L22.8512 11.5185L22.043 10.9296L21.9202 11.0981L22.7284 11.687ZM22.8512 11.5185L22.6988 10.5302C20.819 10.82 19.3981 12.3964 19.3158 14.2915L20.3149 14.3348L21.3139 14.3782C21.3545 13.4436 22.0596 12.6524 23.0035 12.5069L22.8512 11.5185ZM20.3149 14.3348H19.3149C19.3149 14.3051 19.3165 14.2825 19.3174 14.2716C19.3182 14.2622 19.3191 14.2552 19.3181 14.2642L20.3119 14.3751L21.3057 14.486C21.3062 14.4821 21.3149 14.4132 21.3149 14.3348H20.3149ZM20.3119 14.3751H19.3119V17.746H20.3119H21.3119V14.3751H20.3119ZM20.3119 17.746H19.3119C19.3119 17.9185 19.2383 18.0906 19.107 18.2136L19.7909 18.9432L20.4747 19.6728C21.0052 19.1756 21.3119 18.477 21.3119 17.746H20.3119ZM19.7909 18.9432L19.1085 18.2122C18.9776 18.3344 18.8079 18.3967 18.6172 18.3849L18.5557 19.383L18.4942 20.3811C19.2227 20.426 19.9334 20.1782 20.4733 19.6742L19.7909 18.9432ZM18.5557 19.383L18.6212 18.3852C18.3037 18.3643 18.018 18.0825 18.018 17.7058H17.018H16.018C16.018 19.0972 17.0828 20.2884 18.4901 20.3809L18.5557 19.383ZM17.018 17.7058H18.018V16.1552H17.018H16.018V17.7058H17.018Z" fill="#5630B0" mask="url(#path-2-inside-1_5911_7245)"/>
</svg>
