<svg width="40" height="40" viewBox="0 0 40 40" fill="none" xmlns="http://www.w3.org/2000/svg">
<circle cx="20" cy="20" r="20" fill="#C0E1FF"/>
<g clip-path="url(#clip0_5911_7159)">
<path d="M29.29 10.31C29.19 10.27 29.1 10.25 29 10.25H23.54C23.13 10.25 22.79 10.59 22.79 11C22.79 11.41 23.13 11.75 23.54 11.75H27.18L22.44 16.49C21.16 15.44 19.52 14.8 17.72 14.8C13.6 14.8 10.25 18.15 10.25 22.27C10.25 26.39 13.6 29.74 17.72 29.74C21.84 29.74 25.19 26.39 25.19 22.27C25.19 20.48 24.56 18.83 23.5 17.55L28.24 12.81V16.45C28.24 16.86 28.58 17.2 28.99 17.2C29.4 17.2 29.74 16.86 29.74 16.45V11C29.74 10.9 29.72 10.81 29.68 10.71C29.62 10.53 29.47 10.38 29.29 10.31ZM17.72 28.25C14.43 28.25 11.75 25.57 11.75 22.28C11.75 18.99 14.43 16.3 17.72 16.3C21.01 16.3 23.69 18.98 23.69 22.27C23.69 25.56 21.02 28.25 17.72 28.25Z" fill="#2873B8"/>
</g>
<defs>
<clipPath id="clip0_5911_7159">
<rect width="20" height="20" fill="white" transform="translate(10 10)"/>
</clipPath>
</defs>
</svg>
