<svg width="36" height="36" viewBox="0 0 36 36" fill="none" xmlns="http://www.w3.org/2000/svg">
<path d="M33.0299 32.3566C33.0299 32.5877 32.9381 32.8094 32.7747 32.9728C32.6114 33.1363 32.3898 33.2281 32.1588 33.2281H7.50017C6.90628 33.2275 6.31966 33.0974 5.78111 32.8469C5.24257 32.5964 4.76502 32.2315 4.3817 31.7776C3.99838 31.3237 3.71848 30.7917 3.56148 30.2186C3.40447 29.6455 3.37413 29.0451 3.47257 28.4591L6.6518 9.61656C6.75452 8.92321 7.02288 8.26489 7.43411 7.69745C7.84534 7.13001 8.38731 6.6702 9.01401 6.35703L13.7541 3.98647C14.3167 3.70667 14.9414 3.57504 15.569 3.60403C16.1966 3.63302 16.8065 3.82166 17.3409 4.15212C17.8754 4.48259 18.3168 4.94396 18.6235 5.49264C18.9301 6.04132 19.0919 6.65918 19.0935 7.28783C19.0921 8.61972 18.5627 9.89667 17.6215 10.8385C16.6802 11.7802 15.404 12.31 14.0729 12.3113H12.2403L13.5939 23.1358L14.4962 21.9313C15.5496 20.5283 16.9236 19.3983 18.5033 18.636C20.0829 17.8737 21.8221 17.5013 23.5752 17.55C25.3283 17.5986 27.0442 18.0669 28.5791 18.9157C30.1141 19.7644 31.4235 20.9688 32.3975 22.4281L32.8835 23.1584C32.9509 23.2535 32.9986 23.3612 33.0236 23.4751C33.0487 23.589 33.0507 23.7067 33.0294 23.8214C33.0082 23.936 32.9642 24.0452 32.9 24.1426C32.8358 24.2399 32.7527 24.3233 32.6557 24.3879C32.5587 24.4526 32.4498 24.4971 32.3353 24.5188C32.2208 24.5405 32.1031 24.539 31.9892 24.5144C31.8753 24.4898 31.7675 24.4426 31.6721 24.3755C31.5768 24.3085 31.4959 24.223 31.4341 24.1241L30.9481 23.3937C30.1287 22.1664 29.0273 21.1534 27.7361 20.4395C26.4449 19.7257 25.0016 19.3318 23.527 19.2908C22.0524 19.2498 20.5895 19.563 19.2608 20.2041C17.932 20.8451 16.7761 21.7954 15.8899 22.9754L13.6931 25.9072C13.5897 26.0485 13.446 26.1554 13.281 26.2138C13.1159 26.2722 12.9371 26.2795 12.7679 26.2347C12.5986 26.1899 12.4468 26.0951 12.3321 25.9627C12.2175 25.8303 12.1454 25.6664 12.1253 25.4924L10.3833 11.5479C10.3679 11.4247 10.379 11.2996 10.4158 11.1811C10.4526 11.0625 10.5143 10.9532 10.5968 10.8605C10.6793 10.7677 10.7806 10.6937 10.894 10.6433C11.0074 10.5929 11.1302 10.5673 11.2543 10.5683H14.0729C14.9422 10.5674 15.7755 10.2214 16.3902 9.60643C17.0048 8.99143 17.3505 8.15757 17.3514 7.28783C17.351 6.95582 17.2658 6.62943 17.104 6.33957C16.9423 6.0497 16.7092 5.80595 16.4269 5.6314C16.1447 5.45686 15.8226 5.35729 15.4911 5.34213C15.1597 5.32696 14.8298 5.39671 14.5328 5.54476L9.79271 7.91707C9.41502 8.10604 9.08873 8.38378 8.84177 8.7265C8.59481 9.06923 8.43454 9.46674 8.37468 9.88499L5.19022 28.7502C5.1338 29.0862 5.15122 29.4306 5.24128 29.7593C5.33134 30.0879 5.49187 30.393 5.71172 30.6533C5.93157 30.9136 6.20544 31.1228 6.5143 31.2665C6.82316 31.4101 7.15958 31.4847 7.50017 31.485H32.1588C32.3898 31.485 32.6114 31.5769 32.7747 31.7403C32.9381 31.9037 33.0299 32.1254 33.0299 32.3566Z" fill="#5630B0"/>
</svg>
