<svg width="40" height="40" viewBox="0 0 40 40" fill="none" xmlns="http://www.w3.org/2000/svg">
<circle cx="20" cy="20" r="20" fill="#EAE2FF"/>
<path d="M13.27 25.5064L13.5529 25.2236L13.27 25.5064ZM14.4936 26.73L14.2108 27.0128L14.4936 26.73ZM17.5525 26.73L17.2697 27.0128L17.2697 27.0128L17.5525 26.73ZM18.1643 27.3418L18.4472 27.0589L18.1643 27.3418ZM22.1709 26.1482L21.7846 26.0447V26.0447L22.1709 26.1482ZM22.1709 25.4764L21.7846 25.5799L22.1709 25.4764ZM20.0297 28.2894L19.9261 27.9031H19.9261L20.0297 28.2894ZM19.3579 28.2894L19.4614 27.9031H19.4614L19.3579 28.2894ZM11.7106 19.9703L12.0969 20.0739V20.0739L11.7106 19.9703ZM12.6582 21.8357L12.3754 22.1185L12.6582 21.8357ZM11.7106 20.6421L11.3242 20.7456L11.7106 20.6421ZM13.8518 17.8291L13.9553 18.2154L13.8518 17.8291ZM14.5236 17.8291L14.6271 17.4427H14.6271L14.5236 17.8291ZM26.7293 17.5532L26.4465 17.836L26.7293 17.5532ZM27.3411 18.165L27.6239 17.8821H27.6239L27.3411 18.165ZM26.1475 22.1716L26.044 21.7852L26.044 21.7852L26.1475 22.1716ZM25.4757 22.1716L25.5793 21.7852L25.5793 21.7852L25.4757 22.1716ZM28.2888 20.0303L27.9024 19.9268L27.9024 19.9268L28.2888 20.0303ZM28.2888 19.3585L27.9024 19.4621L27.9024 19.4621L28.2888 19.3585ZM19.9697 11.7112L19.8661 11.3248V11.3248L19.9697 11.7112ZM21.835 12.6589L21.5522 12.9417L21.835 12.6589ZM20.6415 11.7112L20.5379 12.0976L20.5379 12.0976L20.6415 11.7112ZM17.8284 13.8525L17.4421 13.7489V13.7489L17.8284 13.8525ZM17.8284 14.5243L18.2148 14.4207V14.4207L17.8284 14.5243ZM15.6941 24.3059C15.8503 24.4621 15.8503 24.7154 15.6941 24.8716C15.5379 25.0278 15.2846 25.0278 15.1284 24.8716L15.4113 24.5887L15.6941 24.3059ZM24.8709 15.1291C25.0271 15.2853 25.0271 15.5386 24.8709 15.6948C24.7147 15.851 24.4614 15.851 24.3052 15.6948L24.5881 15.4119L24.8709 15.1291ZM19.6938 16.6355L19.9766 16.3527L19.6938 16.6355ZM13.27 25.5064L13.5529 25.2236L14.7764 26.4471L14.4936 26.73L14.2108 27.0128L12.9872 25.7892L13.27 25.5064ZM26.7293 14.4943L26.4465 14.7771L25.2229 13.5535L25.5057 13.2707L25.7886 12.9878L27.0122 14.2114L26.7293 14.4943ZM26.7293 16.9414L26.4465 16.6586C26.7429 16.3622 26.9361 16.1677 27.0602 16.0051C27.1773 15.8517 27.1945 15.7744 27.1945 15.7178H27.5945L27.9945 15.7178C27.9945 16.0196 27.8676 16.2658 27.6962 16.4903C27.5319 16.7057 27.2926 16.9438 27.0122 17.2242L26.7293 16.9414ZM26.7293 14.4943L27.0122 14.2114C27.2926 14.4918 27.5319 14.73 27.6962 14.9453C27.8676 15.1699 27.9945 15.416 27.9945 15.7178L27.5945 15.7178H27.1945C27.1945 15.6613 27.1773 15.584 27.0602 15.4306C26.9361 15.2679 26.7429 15.0735 26.4465 14.7771L26.7293 14.4943ZM14.4936 26.73L14.7764 26.4471C15.0728 26.7435 15.2673 26.9368 15.4299 27.0609C15.5833 27.1779 15.6606 27.1952 15.7172 27.1952V27.5952L15.7172 27.9952C15.4154 27.9952 15.1692 27.8682 14.9447 27.6969C14.7293 27.5326 14.4912 27.2932 14.2108 27.0128L14.4936 26.73ZM16.9407 26.73L17.2236 27.0128C16.9432 27.2932 16.705 27.5326 16.4897 27.6969C16.2651 27.8682 16.019 27.9952 15.7172 27.9952L15.7172 27.5952V27.1952C15.7737 27.1952 15.851 27.1779 16.0044 27.0609C16.1671 26.9368 16.3615 26.7435 16.6579 26.4471L16.9407 26.73ZM13.27 23.0593L13.5529 23.3421C13.2565 23.6385 13.0632 23.8329 12.9391 23.9956C12.8221 24.149 12.8048 24.2263 12.8048 24.2828H12.4048L12.0048 24.2828C12.0048 23.981 12.1318 23.7349 12.3031 23.5103C12.4674 23.295 12.7068 23.0568 12.9872 22.7764L13.27 23.0593ZM13.27 25.5064L12.9872 25.7892C12.7068 25.5088 12.4674 25.2707 12.3031 25.0553C12.1318 24.8308 12.0048 24.5846 12.0048 24.2828L12.4048 24.2828H12.8048C12.8048 24.3394 12.8221 24.4167 12.9391 24.5701C13.0632 24.7327 13.2565 24.9272 13.5529 25.2236L13.27 25.5064ZM23.0586 13.2707L22.7758 12.9878C23.0562 12.7074 23.2943 12.4681 23.5097 12.3038C23.7342 12.1324 23.9804 12.0055 24.2822 12.0055L24.2822 12.4055V12.8055C24.2256 12.8055 24.1483 12.8227 23.9949 12.9398C23.8323 13.0639 23.6378 13.2571 23.3414 13.5535L23.0586 13.2707ZM25.5057 13.2707L25.2229 13.5535C24.9265 13.2571 24.7321 13.0639 24.5694 12.9398C24.416 12.8227 24.3387 12.8055 24.2822 12.8055V12.4055L24.2822 12.0055C24.584 12.0055 24.8301 12.1324 25.0547 12.3038C25.27 12.4681 25.5082 12.7074 25.7886 12.9878L25.5057 13.2707ZM17.5525 26.73L17.8354 26.4471L18.4472 27.0589L18.1643 27.3418L17.8815 27.6246L17.2697 27.0128L17.5525 26.73ZM21.2232 27.3418L20.9404 27.0589C21.2315 26.7678 21.4306 26.5681 21.5705 26.4004C21.7069 26.2368 21.7608 26.1334 21.7846 26.0447L22.1709 26.1482L22.5573 26.2517C22.4911 26.4989 22.357 26.7063 22.185 26.9127C22.0165 27.1148 21.7868 27.3439 21.5061 27.6246L21.2232 27.3418ZM21.2232 24.2828L21.5061 24C21.7868 24.2807 22.0165 24.5098 22.185 24.7119C22.357 24.9182 22.4911 25.1257 22.5573 25.3729L22.1709 25.4764L21.7846 25.5799C21.7608 25.4912 21.7069 25.3878 21.5705 25.2242C21.4306 25.0565 21.2315 24.8568 20.9404 24.5657L21.2232 24.2828ZM22.1709 26.1482L21.7846 26.0447C21.8253 25.8924 21.8253 25.7322 21.7846 25.5799L22.1709 25.4764L22.5573 25.3729C22.6344 25.6607 22.6344 25.9638 22.5573 26.2517L22.1709 26.1482ZM21.2232 27.3418L21.5061 27.6246C21.2254 27.9053 20.9962 28.135 20.7942 28.3035C20.5878 28.4755 20.3804 28.6096 20.1332 28.6758L20.0297 28.2894L19.9261 27.9031C20.0149 27.8793 20.1183 27.8254 20.2818 27.689C20.4496 27.5492 20.6493 27.35 20.9404 27.0589L21.2232 27.3418ZM18.1643 27.3418L18.4472 27.0589C18.7383 27.35 18.9379 27.5492 19.1057 27.689C19.2693 27.8254 19.3727 27.8793 19.4614 27.9031L19.3579 28.2894L19.2544 28.6758C19.0072 28.6096 18.7997 28.4755 18.5934 28.3035C18.3913 28.135 18.1622 27.9053 17.8815 27.6246L18.1643 27.3418ZM20.0297 28.2894L20.1332 28.6758C19.8453 28.7529 19.5422 28.7529 19.2544 28.6758L19.3579 28.2894L19.4614 27.9031C19.6136 27.9439 19.7739 27.9439 19.9261 27.9031L20.0297 28.2894ZM12.6582 18.7768L12.9411 19.0596C12.65 19.3507 12.4508 19.5504 12.311 19.7182C12.1746 19.8817 12.1207 19.9851 12.0969 20.0739L11.7106 19.9703L11.3242 19.8668C11.3904 19.6196 11.5245 19.4122 11.6965 19.2058C11.865 19.0038 12.0947 18.7746 12.3754 18.4939L12.6582 18.7768ZM12.6582 21.8357L12.3754 22.1185C12.0947 21.8378 11.865 21.6087 11.6965 21.4066C11.5245 21.2003 11.3904 20.9928 11.3242 20.7456L11.7106 20.6421L12.0969 20.5386C12.1207 20.6273 12.1746 20.7307 12.311 20.8943C12.4508 21.0621 12.65 21.2617 12.9411 21.5528L12.6582 21.8357ZM11.7106 19.9703L12.0969 20.0739C12.0561 20.2261 12.0561 20.3864 12.0969 20.5386L11.7106 20.6421L11.3242 20.7456C11.2471 20.4578 11.2471 20.1547 11.3242 19.8668L11.7106 19.9703ZM12.6582 18.7768L12.3754 18.4939C12.6561 18.2132 12.8852 17.9835 13.0873 17.815C13.2937 17.643 13.5011 17.5089 13.7483 17.4427L13.8518 17.8291L13.9553 18.2154C13.8666 18.2392 13.7632 18.2931 13.5996 18.4295C13.4319 18.5694 13.2322 18.7685 12.9411 19.0596L12.6582 18.7768ZM15.7172 18.7768L15.4343 19.0596C15.1432 18.7685 14.9435 18.5694 14.7758 18.4295C14.6122 18.2931 14.5088 18.2392 14.4201 18.2154L14.5236 17.8291L14.6271 17.4427C14.8743 17.5089 15.0818 17.643 15.2881 17.815C15.4902 17.9835 15.7193 18.2132 16 18.4939L15.7172 18.7768ZM13.8518 17.8291L13.7483 17.4427C14.0362 17.3656 14.3393 17.3656 14.6271 17.4427L14.5236 17.8291L14.4201 18.2154C14.2678 18.1747 14.1076 18.1747 13.9553 18.2154L13.8518 17.8291ZM26.7293 17.5532L27.0122 17.2703L27.6239 17.8821L27.3411 18.165L27.0583 18.4478L26.4465 17.836L26.7293 17.5532ZM27.3411 21.2239L27.6239 21.5067C27.3433 21.7874 27.1141 22.0171 26.912 22.1856C26.7057 22.3577 26.4982 22.4917 26.2511 22.5579L26.1475 22.1716L26.044 21.7852C26.1327 21.7614 26.2362 21.7075 26.3997 21.5712C26.5675 21.4313 26.7672 21.2322 27.0583 20.9411L27.3411 21.2239ZM24.2822 21.2239L24.565 20.9411C24.8561 21.2322 25.0558 21.4313 25.2236 21.5712C25.3871 21.7075 25.4905 21.7614 25.5793 21.7852L25.4757 22.1716L25.3722 22.5579C25.1251 22.4917 24.9176 22.3577 24.7113 22.1856C24.5092 22.0171 24.28 21.7874 23.9993 21.5067L24.2822 21.2239ZM26.1475 22.1716L26.2511 22.5579C25.9632 22.6351 25.6601 22.6351 25.3722 22.5579L25.4757 22.1716L25.5793 21.7852C25.7315 21.826 25.8918 21.826 26.044 21.7852L26.1475 22.1716ZM27.3411 21.2239L27.0583 20.9411C27.3494 20.65 27.5485 20.4503 27.6884 20.2825C27.8248 20.119 27.8786 20.0155 27.9024 19.9268L28.2888 20.0303L28.6752 20.1339C28.6089 20.381 28.4749 20.5885 28.3028 20.7948C28.1343 20.9969 27.9046 21.2261 27.6239 21.5067L27.3411 21.2239ZM27.3411 18.165L27.6239 17.8821C27.9046 18.1628 28.1343 18.392 28.3028 18.5941C28.4749 18.8004 28.6089 19.0078 28.6752 19.255L28.2888 19.3585L27.9024 19.4621C27.8786 19.3733 27.8248 19.2699 27.6884 19.1064C27.5485 18.9386 27.3494 18.7389 27.0583 18.4478L27.3411 18.165ZM28.2888 20.0303L27.9024 19.9268C27.9432 19.7746 27.9432 19.6143 27.9024 19.4621L28.2888 19.3585L28.6752 19.255C28.7523 19.5429 28.7523 19.846 28.6752 20.1339L28.2888 20.0303ZM18.7761 12.6589L18.4933 12.3761C18.7739 12.0954 19.0031 11.8657 19.2052 11.6972C19.4115 11.5251 19.619 11.3911 19.8661 11.3248L19.9697 11.7112L20.0732 12.0976C19.9845 12.1214 19.881 12.1752 19.7175 12.3116C19.5497 12.4515 19.35 12.6506 19.0589 12.9417L18.7761 12.6589ZM21.835 12.6589L21.5522 12.9417C21.2611 12.6506 21.0614 12.4515 20.8936 12.3116C20.7301 12.1752 20.6267 12.1214 20.5379 12.0976L20.6415 11.7112L20.745 11.3248C20.9922 11.3911 21.1996 11.5251 21.4059 11.6972C21.608 11.8657 21.8372 12.0954 22.1179 12.3761L21.835 12.6589ZM19.9697 11.7112L19.8661 11.3248C20.154 11.2477 20.4571 11.2477 20.745 11.3248L20.6415 11.7112L20.5379 12.0976C20.3857 12.0568 20.2254 12.0568 20.0732 12.0976L19.9697 11.7112ZM18.7761 12.6589L19.0589 12.9417C18.7678 13.2328 18.5687 13.4325 18.4288 13.6003C18.2925 13.7638 18.2386 13.8673 18.2148 13.956L17.8284 13.8525L17.4421 13.7489C17.5083 13.5018 17.6423 13.2943 17.8144 13.088C17.9829 12.8859 18.2126 12.6567 18.4933 12.3761L18.7761 12.6589ZM18.7761 15.7178L18.4933 16.0007C18.2126 15.72 17.9829 15.4908 17.8144 15.2887C17.6423 15.0824 17.5083 14.8749 17.4421 14.6278L17.8284 14.5243L18.2148 14.4207C18.2386 14.5095 18.2925 14.6129 18.4288 14.7764C18.5687 14.9442 18.7678 15.1439 19.0589 15.435L18.7761 15.7178ZM17.8284 13.8525L18.2148 13.956C18.174 14.1082 18.174 14.2685 18.2148 14.4207L17.8284 14.5243L17.4421 14.6278C17.3649 14.3399 17.3649 14.0368 17.4421 13.7489L17.8284 13.8525ZM12.6582 21.8357L12.9411 21.5528L15.6941 24.3059L15.4113 24.5887L15.1284 24.8716L12.3754 22.1185L12.6582 21.8357ZM21.835 12.6589L22.1179 12.3761L24.8709 15.1291L24.5881 15.4119L24.3052 15.6948L21.5522 12.9417L21.835 12.6589ZM21.2232 24.2828L20.9404 24.5657L20.0227 23.648L20.3056 23.3651L20.5884 23.0823L21.5061 24L21.2232 24.2828ZM20.3056 23.3651L20.0227 23.0823L23.0817 20.0234L23.3645 20.3062L23.6473 20.5891L20.5884 23.648L20.3056 23.3651ZM24.2822 21.2239L23.9993 21.5067L23.0817 20.5891L23.3645 20.3062L23.6473 20.0234L24.565 20.9411L24.2822 21.2239ZM20.3056 23.3651L20.0227 23.648L16.352 19.9773L16.6349 19.6944L16.9177 19.4116L20.5884 23.0823L20.3056 23.3651ZM16.6349 19.6944L16.352 19.9773L15.4343 19.0596L15.7172 18.7768L16 18.4939L16.9177 19.4116L16.6349 19.6944ZM19.6938 16.6355L19.9766 16.9183L16.9177 19.9773L16.6349 19.6944L16.352 19.4116L19.4109 16.3527L19.6938 16.6355ZM23.3645 20.3062L23.0817 20.5891L19.4109 16.9183L19.6938 16.6355L19.9766 16.3527L23.6473 20.0234L23.3645 20.3062ZM19.6938 16.6355L19.4109 16.9183L18.4933 16.0007L18.7761 15.7178L19.0589 15.435L19.9766 16.3527L19.6938 16.6355ZM26.7293 17.5532L26.4465 17.836C26.1213 17.5109 26.1213 16.9837 26.4465 16.6586L26.7293 16.9414L27.0122 17.2242C26.9994 17.237 26.9994 17.2576 27.0122 17.2703L26.7293 17.5532ZM17.5525 26.73L17.2697 27.0128C17.257 27.0001 17.2363 27.0001 17.2236 27.0128L16.9407 26.73L16.6579 26.4471C16.9831 26.122 17.5102 26.122 17.8354 26.4471L17.5525 26.73Z" fill="#5630B0"/>
</svg>
