<svg width="40" height="40" viewBox="0 0 40 40" fill="none" xmlns="http://www.w3.org/2000/svg">
<circle cx="20" cy="20" r="20" fill="#CAB7FA"/>
<path d="M19.7566 27.9948L12.4928 20.9201C12.1837 20.638 11.9409 20.3125 11.7201 19.9653C10.5278 18.0339 10.8369 15.5599 12.4928 13.954C13.4422 13.0208 14.7227 12.5 16.0695 12.5C18.1891 12.5 19.5138 13.7153 20.0657 14.4097C20.6177 13.7153 21.9424 12.5 24.0619 12.5C25.4087 12.5 26.6893 13.0208 27.6386 13.954C29.2724 15.5599 29.6036 18.0339 28.4114 19.9653C28.1906 20.3125 27.9477 20.638 27.6386 20.9201L20.3748 27.9948C20.1982 28.1684 19.9333 28.1684 19.7566 27.9948ZM16.0695 13.3681C14.9435 13.3681 13.9058 13.8021 13.111 14.5616C11.7642 15.8854 11.4993 17.9253 12.4707 19.5095C12.6474 19.7917 12.8681 20.0738 13.111 20.3125L20.0657 27.0833L27.0204 20.3125C27.2633 20.0738 27.4841 19.8134 27.6607 19.5095C28.6322 17.9036 28.3893 15.8637 27.0204 14.5616C26.2256 13.8021 25.1658 13.3681 24.0619 13.3681C22.4723 13.3681 21.1476 14.2144 20.4411 15.3863C20.2644 15.6684 19.8449 15.6684 19.6683 15.3863C18.9839 14.2144 17.6592 13.3681 16.0695 13.3681Z" fill="#5630B0"/>
</svg>
