<svg width="80" height="80" viewBox="0 0 80 80" fill="none" xmlns="http://www.w3.org/2000/svg">
<path d="M15.9851 42.6574L15 20C15 20 19.4069 20.9962 25 19C27.7218 18.0286 30.8102 16.2506 33.4742 14.5173C37.4086 11.9574 42.5914 11.9574 46.5258 14.5173C49.1898 16.2506 52.2782 18.0286 55 19C60.5931 20.9962 65 20 65 20L64.0149 42.6574C63.5942 52.3327 57.9611 61.0194 49.2991 65.3505L44.4721 67.7639C41.6569 69.1716 38.3431 69.1716 35.5279 67.7639L30.7009 65.3505C22.0389 61.0194 16.4058 52.3327 15.9851 42.6574Z" stroke="#5630B0" stroke-width="3.6" stroke-linecap="round" stroke-linejoin="round"/>
<path d="M31.4805 43.2966L37.8826 49.8152L53.8879 33.5189" stroke="#5630B0" stroke-width="3.6" stroke-linecap="round" stroke-linejoin="round"/>
</svg>
