<svg width="20" height="20" viewBox="0 0 20 20" fill="none" xmlns="http://www.w3.org/2000/svg">
<path d="M7.62486 7.0138C7.75372 6.66556 8.24628 6.66556 8.37514 7.0138L9.55671 10.207C9.59723 10.3164 9.68355 10.4028 9.79304 10.4433L12.9862 11.6249C13.3344 11.7537 13.3344 12.2463 12.9862 12.3751L9.79304 13.5567C9.68355 13.5972 9.59723 13.6836 9.55671 13.793L8.37514 16.9862C8.24628 17.3344 7.75372 17.3344 7.62486 16.9862L6.44329 13.793C6.40277 13.6836 6.31645 13.5972 6.20696 13.5567L3.0138 12.3751C2.66556 12.2463 2.66556 11.7537 3.0138 11.6249L6.20696 10.4433C6.31645 10.4028 6.40277 10.3164 6.44329 10.207L7.62486 7.0138Z" stroke="#5630B0" stroke-width="0.8"/>
<path d="M13.6249 3.0138C13.7537 2.66555 14.2463 2.66555 14.3751 3.0138L15.0165 4.74714C15.057 4.85663 15.1434 4.94295 15.2529 4.98347L16.9862 5.62486C17.3344 5.75372 17.3344 6.24628 16.9862 6.37514L15.2529 7.01653C15.1434 7.05705 15.057 7.14337 15.0165 7.25286L14.3751 8.9862C14.2463 9.33445 13.7537 9.33445 13.6249 8.9862L12.9835 7.25286C12.943 7.14337 12.8566 7.05705 12.7471 7.01653L11.0138 6.37514C10.6656 6.24628 10.6656 5.75372 11.0138 5.62486L12.7471 4.98347C12.8566 4.94295 12.943 4.85663 12.9835 4.74714L13.6249 3.0138Z" stroke="#5630B0" stroke-width="0.8"/>
</svg>
