<svg width="40" height="40" viewBox="0 0 40 40" fill="none" xmlns="http://www.w3.org/2000/svg">
<circle cx="20" cy="20" r="20" fill="#EAE2FF"/>
<path d="M24.2286 25.0507L23.832 24.9991L24.2286 25.0507ZM20.1824 20.6439L20.214 20.2452L20.1824 20.6439ZM20.0072 20.3009L19.6859 20.0628L20.0072 20.3009ZM25.2357 13.2467L25.5571 13.4848V13.4848L25.2357 13.2467ZM26.6105 12.925L26.4343 13.2841L26.6105 12.925ZM27.913 13.564L28.0892 13.2049L27.913 13.564ZM28.4248 14.8603L28.0549 14.708L28.4248 14.8603ZM17.981 14.1806C17.7601 14.1806 17.581 14.3597 17.581 14.5806C17.581 14.8016 17.7601 14.9806 17.981 14.9806V14.5806V14.1806ZM23.922 14.9806C24.1429 14.9806 24.322 14.8016 24.322 14.5806C24.322 14.3597 24.1429 14.1806 23.922 14.1806V14.5806V14.9806ZM14.5058 28V28.4H21.2686V28V27.6H14.5058V28ZM21.2686 28V28.4C21.802 28.4 22.5533 28.2244 23.2184 27.7209C23.8951 27.2085 24.4601 26.3732 24.6253 25.1022L24.2286 25.0507L23.832 24.9991C23.6934 26.0658 23.2347 26.7051 22.7355 27.083C22.2246 27.4698 21.6478 27.6 21.2686 27.6V28ZM24.2286 25.0507L24.6253 25.1022C24.6574 24.8552 24.6743 24.5925 24.6743 24.3134H24.2743H23.8743C23.8743 24.5602 23.8593 24.7884 23.832 24.9991L24.2286 25.0507ZM24.2743 24.3134H24.6743C24.6743 22.8161 23.9662 21.8134 23.0464 21.1843C22.1447 20.5676 21.0469 20.3113 20.214 20.2452L20.1824 20.6439L20.1507 21.0426C20.8971 21.1019 21.8453 21.332 22.5948 21.8446C23.326 22.3447 23.8743 23.114 23.8743 24.3134H24.2743ZM20.0072 20.3009L20.3286 20.5391L25.5571 13.4848L25.2357 13.2467L24.9143 13.0085L19.6859 20.0628L20.0072 20.3009ZM26.6105 12.925L26.4343 13.2841L27.7368 13.9231L27.913 13.564L28.0892 13.2049L26.7867 12.5659L26.6105 12.925ZM28.4248 14.8603L28.0549 14.708L23.8588 24.8984L24.2286 25.0507L24.5985 25.203L28.7947 15.0126L28.4248 14.8603ZM27.913 13.564L27.7368 13.9231C28.0506 14.0771 28.1741 14.4187 28.0549 14.708L28.4248 14.8603L28.7947 15.0126C29.082 14.3148 28.7629 13.5354 28.0892 13.2049L27.913 13.564ZM25.2357 13.2467L25.5571 13.4848C25.7493 13.2255 26.1241 13.1319 26.4343 13.2841L26.6105 12.925L26.7867 12.5659C26.1406 12.2489 25.3435 12.4294 24.9143 13.0085L25.2357 13.2467ZM20.1824 20.6439L20.214 20.2452C20.271 20.2497 20.3208 20.2848 20.3466 20.3347C20.374 20.3878 20.3788 20.4713 20.3286 20.5391L20.0072 20.3009L19.6859 20.0628C19.3649 20.4959 19.7189 21.0083 20.1507 21.0426L20.1824 20.6439ZM17.981 14.5806V14.9806H23.922V14.5806V14.1806H17.981V14.5806ZM15.8207 24.9032H15.4207C15.4207 25.2355 15.1335 25.5355 14.7405 25.5355V25.9355V26.3355C15.5407 26.3355 16.2207 25.7111 16.2207 24.9032H15.8207ZM14.7405 25.9355V25.5355C14.3476 25.5355 14.0603 25.2355 14.0603 24.9032H13.6603H13.2603C13.2603 25.7111 13.9403 26.3355 14.7405 26.3355V25.9355ZM13.6603 24.9032H14.0603C14.0603 24.5709 14.3476 24.271 14.7405 24.271V23.871V23.471C13.9403 23.471 13.2603 24.0953 13.2603 24.9032H13.6603ZM14.7405 23.871V24.271C15.1335 24.271 15.4207 24.5709 15.4207 24.9032H15.8207H16.2207C16.2207 24.0953 15.5407 23.471 14.7405 23.471V23.871ZM17.981 24.9032H17.581C17.581 26.3757 16.3266 27.6 14.7405 27.6V28V28.4C16.7338 28.4 18.381 26.8513 18.381 24.9032H17.981ZM14.7405 28V27.6C13.1544 27.6 11.9 26.3757 11.9 24.9032H11.5H11.1C11.1 26.8513 12.7472 28.4 14.7405 28.4V28ZM11.5 24.9032H11.9C11.9 23.4307 13.1544 22.2065 14.7405 22.2065V21.8065V21.4065C12.7472 21.4065 11.1 22.9551 11.1 24.9032H11.5ZM14.7405 21.8065V22.2065C16.3266 22.2065 17.581 23.4307 17.581 24.9032H17.981H18.381C18.381 22.9551 16.7338 21.4065 14.7405 21.4065V21.8065ZM11.5 24.9032H11.9V15.0968H11.5H11.1V24.9032H11.5ZM17.981 15.0968H17.581V24.9032H17.981H18.381V15.0968H17.981ZM14.7405 12V12.4C16.3266 12.4 17.581 13.6243 17.581 15.0968H17.981H18.381C18.381 13.1487 16.7338 11.6 14.7405 11.6V12ZM11.5 15.0968H11.9C11.9 13.6243 13.1544 12.4 14.7405 12.4V12V11.6C12.7472 11.6 11.1 13.1487 11.1 15.0968H11.5Z" fill="#5630B0"/>
</svg>
