<svg width="36" height="36" viewBox="0 0 36 36" fill="none" xmlns="http://www.w3.org/2000/svg">
<path d="M17.8602 1.72192C8.91341 1.72192 1.66016 8.97518 1.66016 17.9219C1.66016 26.8687 8.91341 34.1219 17.8602 34.1219C26.8069 34.1219 34.0602 26.8687 34.0602 17.9219C34.0602 8.97518 26.8069 1.72192 17.8602 1.72192ZM17.8602 32.5882C9.77613 32.5882 3.19388 26.006 3.19388 17.9219C3.19388 9.8379 9.77613 3.25565 17.8602 3.25565C25.9442 3.25565 32.5264 9.8379 32.5264 17.9219C32.5264 26.006 25.9442 32.5882 17.8602 32.5882Z" fill="#5630B0"/>
<path d="M18.5351 18.6745V10.1321C18.5351 9.7355 18.2062 9.3999 17.8174 9.3999C17.4286 9.3999 17.0996 9.7355 17.0996 10.1321V18.9796C17.0996 19.1626 17.1893 19.3762 17.309 19.4982L23.0809 25.3863C23.2305 25.5389 23.4099 25.5999 23.5893 25.5999C23.7688 25.5999 23.9482 25.5389 24.0977 25.3863C24.3669 25.1118 24.3669 24.6236 24.0977 24.3491L18.5351 18.6745Z" fill="#5630B0"/>
</svg>
