<svg width="40" height="40" viewBox="0 0 40 40" fill="none" xmlns="http://www.w3.org/2000/svg">
<circle cx="20" cy="20" r="20" fill="#EAE2FF"/>
<path d="M24.8614 19.7258C23.748 13.6935 22.6345 17.5323 20.4076 15.8871C19.4046 15.1461 19.0604 14.0228 18.918 13.0846C18.8073 12.3548 18.126 12.1023 17.6002 12.6202L13.5634 16.5965M24.8614 19.7258L23.1912 20.2742M24.8614 19.7258C25.0103 20.5325 25.3329 21.1697 25.7273 21.7111M25.7273 21.7111C25.8331 21.8562 25.944 21.9944 26.0581 22.1272C27.1694 23.4201 28.5852 24.1942 28.496 25.7581M25.7273 21.7111L24.0441 22.1272M13.5634 16.5965L12.9861 17.1652C12.1757 17.9635 12.1934 19.2761 13.0251 20.0522L20.9252 27.4244C21.6659 28.1156 22.6412 28.5 23.6542 28.5H25.9887C26.6734 28.5 27.3169 28.1536 27.6713 27.5677C28.0913 26.8732 28.4729 26.1622 28.496 25.7581M13.5634 16.5965L21.4606 24.5724C22.2118 25.3312 23.2353 25.7581 24.303 25.7581H28.496" stroke="#5630B0" stroke-width="0.8" stroke-linecap="round" stroke-linejoin="round"/>
</svg>
