<svg width="40" height="40" viewBox="0 0 40 40" fill="none" xmlns="http://www.w3.org/2000/svg">
<circle cx="20" cy="20" r="20" fill="#EAE2FF"/>
<path d="M18.6097 15.1424C18.2579 14.8001 17.4041 14.0307 16.1695 13.5907C16.0763 13.5575 15.9723 13.5917 15.9307 13.6794C15.5996 14.3779 15.3497 16.2523 15.8593 16.7483M22.4603 15.1424C22.8099 14.8022 23.4305 14.0403 24.6318 13.5989C24.7343 13.5613 24.8485 13.6073 24.8901 13.7058C25.0831 14.1621 25.3621 15.0926 25.3621 16.213M20.26 23.7068C20.4401 21.4277 22.2844 16.5989 28.1934 15.2128C28.3444 15.1774 28.4832 15.302 28.4499 15.4496C27.9406 17.7053 25.721 22.0718 20.26 23.7068ZM20.26 23.7068C17.744 23.0073 12.6564 20.3882 12.0407 15.4462C12.0224 15.2992 12.1627 15.1826 12.3085 15.2251C15.1389 16.0497 20.26 18.7488 20.26 23.7068ZM20.26 23.7068V27.5M18.211 18.3541C18.211 16.7945 18.6261 13.4171 20.2627 12.0471C20.3457 11.9777 20.4687 11.9859 20.5413 12.0657C21.3048 12.9044 22.6117 15.1206 22.6117 18.3541" stroke="#5630B0" stroke-width="0.8" stroke-linecap="round" stroke-linejoin="round"/>
</svg>
